%TF.GenerationSoftware,KiCad,Pcbnew,7.0.9*%
%TF.CreationDate,2023-11-10T12:16:27-05:00*%
%TF.ProjectId,DoubleRow4SlotBackplane,446f7562-6c65-4526-9f77-34536c6f7442,rev?*%
%TF.SameCoordinates,Original*%
%TF.FileFunction,Drillmap*%
%TF.FilePolarity,Positive*%
%FSLAX45Y45*%
G04 Gerber Fmt 4.5, Leading zero omitted, Abs format (unit mm)*
G04 Created by KiCad (PCBNEW 7.0.9) date 2023-11-10 12:16:27*
%MOMM*%
%LPD*%
G01*
G04 APERTURE LIST*
%ADD10C,0.100000*%
%ADD11C,0.200000*%
G04 APERTURE END LIST*
D10*
X6226486Y-3048000D02*
X18949072Y-3048000D01*
X18949072Y-15000000D01*
X6226486Y-15000000D01*
X6226486Y-3048000D01*
D11*
D10*
X6300000Y-9348000D02*
X6400000Y-9448000D01*
X6400000Y-9348000D02*
X6300000Y-9448000D01*
X6300000Y-9602000D02*
X6400000Y-9702000D01*
X6400000Y-9602000D02*
X6300000Y-9702000D01*
X6300000Y-9856000D02*
X6400000Y-9956000D01*
X6400000Y-9856000D02*
X6300000Y-9956000D01*
X6300000Y-10110000D02*
X6400000Y-10210000D01*
X6400000Y-10110000D02*
X6300000Y-10210000D01*
X6300000Y-10364000D02*
X6400000Y-10464000D01*
X6400000Y-10364000D02*
X6300000Y-10464000D01*
X6300000Y-10618000D02*
X6400000Y-10718000D01*
X6400000Y-10618000D02*
X6300000Y-10718000D01*
X6300000Y-10872000D02*
X6400000Y-10972000D01*
X6400000Y-10872000D02*
X6300000Y-10972000D01*
X6300000Y-11126000D02*
X6400000Y-11226000D01*
X6400000Y-11126000D02*
X6300000Y-11226000D01*
X6300000Y-11380000D02*
X6400000Y-11480000D01*
X6400000Y-11380000D02*
X6300000Y-11480000D01*
X6300000Y-11634000D02*
X6400000Y-11734000D01*
X6400000Y-11634000D02*
X6300000Y-11734000D01*
X6300000Y-11888000D02*
X6400000Y-11988000D01*
X6400000Y-11888000D02*
X6300000Y-11988000D01*
X6300000Y-12142000D02*
X6400000Y-12242000D01*
X6400000Y-12142000D02*
X6300000Y-12242000D01*
X6300000Y-12396000D02*
X6400000Y-12496000D01*
X6400000Y-12396000D02*
X6300000Y-12496000D01*
X6300000Y-12650000D02*
X6400000Y-12750000D01*
X6400000Y-12650000D02*
X6300000Y-12750000D01*
X6300000Y-12904000D02*
X6400000Y-13004000D01*
X6400000Y-12904000D02*
X6300000Y-13004000D01*
X6300000Y-13158000D02*
X6400000Y-13258000D01*
X6400000Y-13158000D02*
X6300000Y-13258000D01*
X6300000Y-13412000D02*
X6400000Y-13512000D01*
X6400000Y-13412000D02*
X6300000Y-13512000D01*
X6300000Y-13666000D02*
X6400000Y-13766000D01*
X6400000Y-13666000D02*
X6300000Y-13766000D01*
X6300000Y-13920000D02*
X6400000Y-14020000D01*
X6400000Y-13920000D02*
X6300000Y-14020000D01*
X6300000Y-14174000D02*
X6400000Y-14274000D01*
X6400000Y-14174000D02*
X6300000Y-14274000D01*
X6324000Y-3619000D02*
X6424000Y-3719000D01*
X6424000Y-3619000D02*
X6324000Y-3719000D01*
X6324000Y-3873000D02*
X6424000Y-3973000D01*
X6424000Y-3873000D02*
X6324000Y-3973000D01*
X6324000Y-4127000D02*
X6424000Y-4227000D01*
X6424000Y-4127000D02*
X6324000Y-4227000D01*
X6324000Y-4381000D02*
X6424000Y-4481000D01*
X6424000Y-4381000D02*
X6324000Y-4481000D01*
X6324000Y-4635000D02*
X6424000Y-4735000D01*
X6424000Y-4635000D02*
X6324000Y-4735000D01*
X6324000Y-4889000D02*
X6424000Y-4989000D01*
X6424000Y-4889000D02*
X6324000Y-4989000D01*
X6324000Y-5143000D02*
X6424000Y-5243000D01*
X6424000Y-5143000D02*
X6324000Y-5243000D01*
X6324000Y-5397000D02*
X6424000Y-5497000D01*
X6424000Y-5397000D02*
X6324000Y-5497000D01*
X6324000Y-5651000D02*
X6424000Y-5751000D01*
X6424000Y-5651000D02*
X6324000Y-5751000D01*
X6324000Y-5905000D02*
X6424000Y-6005000D01*
X6424000Y-5905000D02*
X6324000Y-6005000D01*
X6324000Y-6159000D02*
X6424000Y-6259000D01*
X6424000Y-6159000D02*
X6324000Y-6259000D01*
X6324000Y-6413000D02*
X6424000Y-6513000D01*
X6424000Y-6413000D02*
X6324000Y-6513000D01*
X6324000Y-6667000D02*
X6424000Y-6767000D01*
X6424000Y-6667000D02*
X6324000Y-6767000D01*
X6324000Y-6921000D02*
X6424000Y-7021000D01*
X6424000Y-6921000D02*
X6324000Y-7021000D01*
X6324000Y-7175000D02*
X6424000Y-7275000D01*
X6424000Y-7175000D02*
X6324000Y-7275000D01*
X6324000Y-7429000D02*
X6424000Y-7529000D01*
X6424000Y-7429000D02*
X6324000Y-7529000D01*
X6324000Y-7683000D02*
X6424000Y-7783000D01*
X6424000Y-7683000D02*
X6324000Y-7783000D01*
X6324000Y-7937000D02*
X6424000Y-8037000D01*
X6424000Y-7937000D02*
X6324000Y-8037000D01*
X6324000Y-8191000D02*
X6424000Y-8291000D01*
X6424000Y-8191000D02*
X6324000Y-8291000D01*
X6324000Y-8445000D02*
X6424000Y-8545000D01*
X6424000Y-8445000D02*
X6324000Y-8545000D01*
X6554000Y-9348000D02*
X6654000Y-9448000D01*
X6654000Y-9348000D02*
X6554000Y-9448000D01*
X6554000Y-9602000D02*
X6654000Y-9702000D01*
X6654000Y-9602000D02*
X6554000Y-9702000D01*
X6554000Y-9856000D02*
X6654000Y-9956000D01*
X6654000Y-9856000D02*
X6554000Y-9956000D01*
X6554000Y-10110000D02*
X6654000Y-10210000D01*
X6654000Y-10110000D02*
X6554000Y-10210000D01*
X6554000Y-10364000D02*
X6654000Y-10464000D01*
X6654000Y-10364000D02*
X6554000Y-10464000D01*
X6554000Y-10618000D02*
X6654000Y-10718000D01*
X6654000Y-10618000D02*
X6554000Y-10718000D01*
X6554000Y-10872000D02*
X6654000Y-10972000D01*
X6654000Y-10872000D02*
X6554000Y-10972000D01*
X6554000Y-11126000D02*
X6654000Y-11226000D01*
X6654000Y-11126000D02*
X6554000Y-11226000D01*
X6554000Y-11380000D02*
X6654000Y-11480000D01*
X6654000Y-11380000D02*
X6554000Y-11480000D01*
X6554000Y-11634000D02*
X6654000Y-11734000D01*
X6654000Y-11634000D02*
X6554000Y-11734000D01*
X6554000Y-11888000D02*
X6654000Y-11988000D01*
X6654000Y-11888000D02*
X6554000Y-11988000D01*
X6554000Y-12142000D02*
X6654000Y-12242000D01*
X6654000Y-12142000D02*
X6554000Y-12242000D01*
X6554000Y-12396000D02*
X6654000Y-12496000D01*
X6654000Y-12396000D02*
X6554000Y-12496000D01*
X6554000Y-12650000D02*
X6654000Y-12750000D01*
X6654000Y-12650000D02*
X6554000Y-12750000D01*
X6554000Y-12904000D02*
X6654000Y-13004000D01*
X6654000Y-12904000D02*
X6554000Y-13004000D01*
X6554000Y-13158000D02*
X6654000Y-13258000D01*
X6654000Y-13158000D02*
X6554000Y-13258000D01*
X6554000Y-13412000D02*
X6654000Y-13512000D01*
X6654000Y-13412000D02*
X6554000Y-13512000D01*
X6554000Y-13666000D02*
X6654000Y-13766000D01*
X6654000Y-13666000D02*
X6554000Y-13766000D01*
X6554000Y-13920000D02*
X6654000Y-14020000D01*
X6654000Y-13920000D02*
X6554000Y-14020000D01*
X6554000Y-14174000D02*
X6654000Y-14274000D01*
X6654000Y-14174000D02*
X6554000Y-14274000D01*
X6578000Y-3619000D02*
X6678000Y-3719000D01*
X6678000Y-3619000D02*
X6578000Y-3719000D01*
X6578000Y-3873000D02*
X6678000Y-3973000D01*
X6678000Y-3873000D02*
X6578000Y-3973000D01*
X6578000Y-4127000D02*
X6678000Y-4227000D01*
X6678000Y-4127000D02*
X6578000Y-4227000D01*
X6578000Y-4381000D02*
X6678000Y-4481000D01*
X6678000Y-4381000D02*
X6578000Y-4481000D01*
X6578000Y-4635000D02*
X6678000Y-4735000D01*
X6678000Y-4635000D02*
X6578000Y-4735000D01*
X6578000Y-4889000D02*
X6678000Y-4989000D01*
X6678000Y-4889000D02*
X6578000Y-4989000D01*
X6578000Y-5143000D02*
X6678000Y-5243000D01*
X6678000Y-5143000D02*
X6578000Y-5243000D01*
X6578000Y-5397000D02*
X6678000Y-5497000D01*
X6678000Y-5397000D02*
X6578000Y-5497000D01*
X6578000Y-5651000D02*
X6678000Y-5751000D01*
X6678000Y-5651000D02*
X6578000Y-5751000D01*
X6578000Y-5905000D02*
X6678000Y-6005000D01*
X6678000Y-5905000D02*
X6578000Y-6005000D01*
X6578000Y-6159000D02*
X6678000Y-6259000D01*
X6678000Y-6159000D02*
X6578000Y-6259000D01*
X6578000Y-6413000D02*
X6678000Y-6513000D01*
X6678000Y-6413000D02*
X6578000Y-6513000D01*
X6578000Y-6667000D02*
X6678000Y-6767000D01*
X6678000Y-6667000D02*
X6578000Y-6767000D01*
X6578000Y-6921000D02*
X6678000Y-7021000D01*
X6678000Y-6921000D02*
X6578000Y-7021000D01*
X6578000Y-7175000D02*
X6678000Y-7275000D01*
X6678000Y-7175000D02*
X6578000Y-7275000D01*
X6578000Y-7429000D02*
X6678000Y-7529000D01*
X6678000Y-7429000D02*
X6578000Y-7529000D01*
X6578000Y-7683000D02*
X6678000Y-7783000D01*
X6678000Y-7683000D02*
X6578000Y-7783000D01*
X6578000Y-7937000D02*
X6678000Y-8037000D01*
X6678000Y-7937000D02*
X6578000Y-8037000D01*
X6578000Y-8191000D02*
X6678000Y-8291000D01*
X6678000Y-8191000D02*
X6578000Y-8291000D01*
X6578000Y-8445000D02*
X6678000Y-8545000D01*
X6678000Y-8445000D02*
X6578000Y-8545000D01*
X7824000Y-3619000D02*
X7924000Y-3719000D01*
X7924000Y-3619000D02*
X7824000Y-3719000D01*
X7824000Y-3873000D02*
X7924000Y-3973000D01*
X7924000Y-3873000D02*
X7824000Y-3973000D01*
X7824000Y-4127000D02*
X7924000Y-4227000D01*
X7924000Y-4127000D02*
X7824000Y-4227000D01*
X7824000Y-4381000D02*
X7924000Y-4481000D01*
X7924000Y-4381000D02*
X7824000Y-4481000D01*
X7824000Y-4635000D02*
X7924000Y-4735000D01*
X7924000Y-4635000D02*
X7824000Y-4735000D01*
X7824000Y-4889000D02*
X7924000Y-4989000D01*
X7924000Y-4889000D02*
X7824000Y-4989000D01*
X7824000Y-5143000D02*
X7924000Y-5243000D01*
X7924000Y-5143000D02*
X7824000Y-5243000D01*
X7824000Y-5397000D02*
X7924000Y-5497000D01*
X7924000Y-5397000D02*
X7824000Y-5497000D01*
X7824000Y-5651000D02*
X7924000Y-5751000D01*
X7924000Y-5651000D02*
X7824000Y-5751000D01*
X7824000Y-5905000D02*
X7924000Y-6005000D01*
X7924000Y-5905000D02*
X7824000Y-6005000D01*
X7824000Y-6159000D02*
X7924000Y-6259000D01*
X7924000Y-6159000D02*
X7824000Y-6259000D01*
X7824000Y-6413000D02*
X7924000Y-6513000D01*
X7924000Y-6413000D02*
X7824000Y-6513000D01*
X7824000Y-6667000D02*
X7924000Y-6767000D01*
X7924000Y-6667000D02*
X7824000Y-6767000D01*
X7824000Y-6921000D02*
X7924000Y-7021000D01*
X7924000Y-6921000D02*
X7824000Y-7021000D01*
X7824000Y-7175000D02*
X7924000Y-7275000D01*
X7924000Y-7175000D02*
X7824000Y-7275000D01*
X7824000Y-7429000D02*
X7924000Y-7529000D01*
X7924000Y-7429000D02*
X7824000Y-7529000D01*
X7824000Y-7683000D02*
X7924000Y-7783000D01*
X7924000Y-7683000D02*
X7824000Y-7783000D01*
X7824000Y-7937000D02*
X7924000Y-8037000D01*
X7924000Y-7937000D02*
X7824000Y-8037000D01*
X7824000Y-8191000D02*
X7924000Y-8291000D01*
X7924000Y-8191000D02*
X7824000Y-8291000D01*
X7824000Y-8445000D02*
X7924000Y-8545000D01*
X7924000Y-8445000D02*
X7824000Y-8545000D01*
X7824000Y-9348000D02*
X7924000Y-9448000D01*
X7924000Y-9348000D02*
X7824000Y-9448000D01*
X7824000Y-9602000D02*
X7924000Y-9702000D01*
X7924000Y-9602000D02*
X7824000Y-9702000D01*
X7824000Y-9856000D02*
X7924000Y-9956000D01*
X7924000Y-9856000D02*
X7824000Y-9956000D01*
X7824000Y-10110000D02*
X7924000Y-10210000D01*
X7924000Y-10110000D02*
X7824000Y-10210000D01*
X7824000Y-10364000D02*
X7924000Y-10464000D01*
X7924000Y-10364000D02*
X7824000Y-10464000D01*
X7824000Y-10618000D02*
X7924000Y-10718000D01*
X7924000Y-10618000D02*
X7824000Y-10718000D01*
X7824000Y-10872000D02*
X7924000Y-10972000D01*
X7924000Y-10872000D02*
X7824000Y-10972000D01*
X7824000Y-11126000D02*
X7924000Y-11226000D01*
X7924000Y-11126000D02*
X7824000Y-11226000D01*
X7824000Y-11380000D02*
X7924000Y-11480000D01*
X7924000Y-11380000D02*
X7824000Y-11480000D01*
X7824000Y-11634000D02*
X7924000Y-11734000D01*
X7924000Y-11634000D02*
X7824000Y-11734000D01*
X7824000Y-11888000D02*
X7924000Y-11988000D01*
X7924000Y-11888000D02*
X7824000Y-11988000D01*
X7824000Y-12142000D02*
X7924000Y-12242000D01*
X7924000Y-12142000D02*
X7824000Y-12242000D01*
X7824000Y-12396000D02*
X7924000Y-12496000D01*
X7924000Y-12396000D02*
X7824000Y-12496000D01*
X7824000Y-12650000D02*
X7924000Y-12750000D01*
X7924000Y-12650000D02*
X7824000Y-12750000D01*
X7824000Y-12904000D02*
X7924000Y-13004000D01*
X7924000Y-12904000D02*
X7824000Y-13004000D01*
X7824000Y-13158000D02*
X7924000Y-13258000D01*
X7924000Y-13158000D02*
X7824000Y-13258000D01*
X7824000Y-13412000D02*
X7924000Y-13512000D01*
X7924000Y-13412000D02*
X7824000Y-13512000D01*
X7824000Y-13666000D02*
X7924000Y-13766000D01*
X7924000Y-13666000D02*
X7824000Y-13766000D01*
X7824000Y-13920000D02*
X7924000Y-14020000D01*
X7924000Y-13920000D02*
X7824000Y-14020000D01*
X7824000Y-14174000D02*
X7924000Y-14274000D01*
X7924000Y-14174000D02*
X7824000Y-14274000D01*
X8078000Y-3619000D02*
X8178000Y-3719000D01*
X8178000Y-3619000D02*
X8078000Y-3719000D01*
X8078000Y-3873000D02*
X8178000Y-3973000D01*
X8178000Y-3873000D02*
X8078000Y-3973000D01*
X8078000Y-4127000D02*
X8178000Y-4227000D01*
X8178000Y-4127000D02*
X8078000Y-4227000D01*
X8078000Y-4381000D02*
X8178000Y-4481000D01*
X8178000Y-4381000D02*
X8078000Y-4481000D01*
X8078000Y-4635000D02*
X8178000Y-4735000D01*
X8178000Y-4635000D02*
X8078000Y-4735000D01*
X8078000Y-4889000D02*
X8178000Y-4989000D01*
X8178000Y-4889000D02*
X8078000Y-4989000D01*
X8078000Y-5143000D02*
X8178000Y-5243000D01*
X8178000Y-5143000D02*
X8078000Y-5243000D01*
X8078000Y-5397000D02*
X8178000Y-5497000D01*
X8178000Y-5397000D02*
X8078000Y-5497000D01*
X8078000Y-5651000D02*
X8178000Y-5751000D01*
X8178000Y-5651000D02*
X8078000Y-5751000D01*
X8078000Y-5905000D02*
X8178000Y-6005000D01*
X8178000Y-5905000D02*
X8078000Y-6005000D01*
X8078000Y-6159000D02*
X8178000Y-6259000D01*
X8178000Y-6159000D02*
X8078000Y-6259000D01*
X8078000Y-6413000D02*
X8178000Y-6513000D01*
X8178000Y-6413000D02*
X8078000Y-6513000D01*
X8078000Y-6667000D02*
X8178000Y-6767000D01*
X8178000Y-6667000D02*
X8078000Y-6767000D01*
X8078000Y-6921000D02*
X8178000Y-7021000D01*
X8178000Y-6921000D02*
X8078000Y-7021000D01*
X8078000Y-7175000D02*
X8178000Y-7275000D01*
X8178000Y-7175000D02*
X8078000Y-7275000D01*
X8078000Y-7429000D02*
X8178000Y-7529000D01*
X8178000Y-7429000D02*
X8078000Y-7529000D01*
X8078000Y-7683000D02*
X8178000Y-7783000D01*
X8178000Y-7683000D02*
X8078000Y-7783000D01*
X8078000Y-7937000D02*
X8178000Y-8037000D01*
X8178000Y-7937000D02*
X8078000Y-8037000D01*
X8078000Y-8191000D02*
X8178000Y-8291000D01*
X8178000Y-8191000D02*
X8078000Y-8291000D01*
X8078000Y-8445000D02*
X8178000Y-8545000D01*
X8178000Y-8445000D02*
X8078000Y-8545000D01*
X8078000Y-9348000D02*
X8178000Y-9448000D01*
X8178000Y-9348000D02*
X8078000Y-9448000D01*
X8078000Y-9602000D02*
X8178000Y-9702000D01*
X8178000Y-9602000D02*
X8078000Y-9702000D01*
X8078000Y-9856000D02*
X8178000Y-9956000D01*
X8178000Y-9856000D02*
X8078000Y-9956000D01*
X8078000Y-10110000D02*
X8178000Y-10210000D01*
X8178000Y-10110000D02*
X8078000Y-10210000D01*
X8078000Y-10364000D02*
X8178000Y-10464000D01*
X8178000Y-10364000D02*
X8078000Y-10464000D01*
X8078000Y-10618000D02*
X8178000Y-10718000D01*
X8178000Y-10618000D02*
X8078000Y-10718000D01*
X8078000Y-10872000D02*
X8178000Y-10972000D01*
X8178000Y-10872000D02*
X8078000Y-10972000D01*
X8078000Y-11126000D02*
X8178000Y-11226000D01*
X8178000Y-11126000D02*
X8078000Y-11226000D01*
X8078000Y-11380000D02*
X8178000Y-11480000D01*
X8178000Y-11380000D02*
X8078000Y-11480000D01*
X8078000Y-11634000D02*
X8178000Y-11734000D01*
X8178000Y-11634000D02*
X8078000Y-11734000D01*
X8078000Y-11888000D02*
X8178000Y-11988000D01*
X8178000Y-11888000D02*
X8078000Y-11988000D01*
X8078000Y-12142000D02*
X8178000Y-12242000D01*
X8178000Y-12142000D02*
X8078000Y-12242000D01*
X8078000Y-12396000D02*
X8178000Y-12496000D01*
X8178000Y-12396000D02*
X8078000Y-12496000D01*
X8078000Y-12650000D02*
X8178000Y-12750000D01*
X8178000Y-12650000D02*
X8078000Y-12750000D01*
X8078000Y-12904000D02*
X8178000Y-13004000D01*
X8178000Y-12904000D02*
X8078000Y-13004000D01*
X8078000Y-13158000D02*
X8178000Y-13258000D01*
X8178000Y-13158000D02*
X8078000Y-13258000D01*
X8078000Y-13412000D02*
X8178000Y-13512000D01*
X8178000Y-13412000D02*
X8078000Y-13512000D01*
X8078000Y-13666000D02*
X8178000Y-13766000D01*
X8178000Y-13666000D02*
X8078000Y-13766000D01*
X8078000Y-13920000D02*
X8178000Y-14020000D01*
X8178000Y-13920000D02*
X8078000Y-14020000D01*
X8078000Y-14174000D02*
X8178000Y-14274000D01*
X8178000Y-14174000D02*
X8078000Y-14274000D01*
X10824000Y-3619000D02*
X10924000Y-3719000D01*
X10924000Y-3619000D02*
X10824000Y-3719000D01*
X10824000Y-3873000D02*
X10924000Y-3973000D01*
X10924000Y-3873000D02*
X10824000Y-3973000D01*
X10824000Y-4127000D02*
X10924000Y-4227000D01*
X10924000Y-4127000D02*
X10824000Y-4227000D01*
X10824000Y-4381000D02*
X10924000Y-4481000D01*
X10924000Y-4381000D02*
X10824000Y-4481000D01*
X10824000Y-4635000D02*
X10924000Y-4735000D01*
X10924000Y-4635000D02*
X10824000Y-4735000D01*
X10824000Y-4889000D02*
X10924000Y-4989000D01*
X10924000Y-4889000D02*
X10824000Y-4989000D01*
X10824000Y-5143000D02*
X10924000Y-5243000D01*
X10924000Y-5143000D02*
X10824000Y-5243000D01*
X10824000Y-5397000D02*
X10924000Y-5497000D01*
X10924000Y-5397000D02*
X10824000Y-5497000D01*
X10824000Y-5651000D02*
X10924000Y-5751000D01*
X10924000Y-5651000D02*
X10824000Y-5751000D01*
X10824000Y-5905000D02*
X10924000Y-6005000D01*
X10924000Y-5905000D02*
X10824000Y-6005000D01*
X10824000Y-6159000D02*
X10924000Y-6259000D01*
X10924000Y-6159000D02*
X10824000Y-6259000D01*
X10824000Y-6413000D02*
X10924000Y-6513000D01*
X10924000Y-6413000D02*
X10824000Y-6513000D01*
X10824000Y-6667000D02*
X10924000Y-6767000D01*
X10924000Y-6667000D02*
X10824000Y-6767000D01*
X10824000Y-6921000D02*
X10924000Y-7021000D01*
X10924000Y-6921000D02*
X10824000Y-7021000D01*
X10824000Y-7175000D02*
X10924000Y-7275000D01*
X10924000Y-7175000D02*
X10824000Y-7275000D01*
X10824000Y-7429000D02*
X10924000Y-7529000D01*
X10924000Y-7429000D02*
X10824000Y-7529000D01*
X10824000Y-7683000D02*
X10924000Y-7783000D01*
X10924000Y-7683000D02*
X10824000Y-7783000D01*
X10824000Y-7937000D02*
X10924000Y-8037000D01*
X10924000Y-7937000D02*
X10824000Y-8037000D01*
X10824000Y-8191000D02*
X10924000Y-8291000D01*
X10924000Y-8191000D02*
X10824000Y-8291000D01*
X10824000Y-8445000D02*
X10924000Y-8545000D01*
X10924000Y-8445000D02*
X10824000Y-8545000D01*
X10824000Y-9348000D02*
X10924000Y-9448000D01*
X10924000Y-9348000D02*
X10824000Y-9448000D01*
X10824000Y-9602000D02*
X10924000Y-9702000D01*
X10924000Y-9602000D02*
X10824000Y-9702000D01*
X10824000Y-9856000D02*
X10924000Y-9956000D01*
X10924000Y-9856000D02*
X10824000Y-9956000D01*
X10824000Y-10110000D02*
X10924000Y-10210000D01*
X10924000Y-10110000D02*
X10824000Y-10210000D01*
X10824000Y-10364000D02*
X10924000Y-10464000D01*
X10924000Y-10364000D02*
X10824000Y-10464000D01*
X10824000Y-10618000D02*
X10924000Y-10718000D01*
X10924000Y-10618000D02*
X10824000Y-10718000D01*
X10824000Y-10872000D02*
X10924000Y-10972000D01*
X10924000Y-10872000D02*
X10824000Y-10972000D01*
X10824000Y-11126000D02*
X10924000Y-11226000D01*
X10924000Y-11126000D02*
X10824000Y-11226000D01*
X10824000Y-11380000D02*
X10924000Y-11480000D01*
X10924000Y-11380000D02*
X10824000Y-11480000D01*
X10824000Y-11634000D02*
X10924000Y-11734000D01*
X10924000Y-11634000D02*
X10824000Y-11734000D01*
X10824000Y-11888000D02*
X10924000Y-11988000D01*
X10924000Y-11888000D02*
X10824000Y-11988000D01*
X10824000Y-12142000D02*
X10924000Y-12242000D01*
X10924000Y-12142000D02*
X10824000Y-12242000D01*
X10824000Y-12396000D02*
X10924000Y-12496000D01*
X10924000Y-12396000D02*
X10824000Y-12496000D01*
X10824000Y-12650000D02*
X10924000Y-12750000D01*
X10924000Y-12650000D02*
X10824000Y-12750000D01*
X10824000Y-12904000D02*
X10924000Y-13004000D01*
X10924000Y-12904000D02*
X10824000Y-13004000D01*
X10824000Y-13158000D02*
X10924000Y-13258000D01*
X10924000Y-13158000D02*
X10824000Y-13258000D01*
X10824000Y-13412000D02*
X10924000Y-13512000D01*
X10924000Y-13412000D02*
X10824000Y-13512000D01*
X10824000Y-13666000D02*
X10924000Y-13766000D01*
X10924000Y-13666000D02*
X10824000Y-13766000D01*
X10824000Y-13920000D02*
X10924000Y-14020000D01*
X10924000Y-13920000D02*
X10824000Y-14020000D01*
X10824000Y-14174000D02*
X10924000Y-14274000D01*
X10924000Y-14174000D02*
X10824000Y-14274000D01*
X11078000Y-3619000D02*
X11178000Y-3719000D01*
X11178000Y-3619000D02*
X11078000Y-3719000D01*
X11078000Y-3873000D02*
X11178000Y-3973000D01*
X11178000Y-3873000D02*
X11078000Y-3973000D01*
X11078000Y-4127000D02*
X11178000Y-4227000D01*
X11178000Y-4127000D02*
X11078000Y-4227000D01*
X11078000Y-4381000D02*
X11178000Y-4481000D01*
X11178000Y-4381000D02*
X11078000Y-4481000D01*
X11078000Y-4635000D02*
X11178000Y-4735000D01*
X11178000Y-4635000D02*
X11078000Y-4735000D01*
X11078000Y-4889000D02*
X11178000Y-4989000D01*
X11178000Y-4889000D02*
X11078000Y-4989000D01*
X11078000Y-5143000D02*
X11178000Y-5243000D01*
X11178000Y-5143000D02*
X11078000Y-5243000D01*
X11078000Y-5397000D02*
X11178000Y-5497000D01*
X11178000Y-5397000D02*
X11078000Y-5497000D01*
X11078000Y-5651000D02*
X11178000Y-5751000D01*
X11178000Y-5651000D02*
X11078000Y-5751000D01*
X11078000Y-5905000D02*
X11178000Y-6005000D01*
X11178000Y-5905000D02*
X11078000Y-6005000D01*
X11078000Y-6159000D02*
X11178000Y-6259000D01*
X11178000Y-6159000D02*
X11078000Y-6259000D01*
X11078000Y-6413000D02*
X11178000Y-6513000D01*
X11178000Y-6413000D02*
X11078000Y-6513000D01*
X11078000Y-6667000D02*
X11178000Y-6767000D01*
X11178000Y-6667000D02*
X11078000Y-6767000D01*
X11078000Y-6921000D02*
X11178000Y-7021000D01*
X11178000Y-6921000D02*
X11078000Y-7021000D01*
X11078000Y-7175000D02*
X11178000Y-7275000D01*
X11178000Y-7175000D02*
X11078000Y-7275000D01*
X11078000Y-7429000D02*
X11178000Y-7529000D01*
X11178000Y-7429000D02*
X11078000Y-7529000D01*
X11078000Y-7683000D02*
X11178000Y-7783000D01*
X11178000Y-7683000D02*
X11078000Y-7783000D01*
X11078000Y-7937000D02*
X11178000Y-8037000D01*
X11178000Y-7937000D02*
X11078000Y-8037000D01*
X11078000Y-8191000D02*
X11178000Y-8291000D01*
X11178000Y-8191000D02*
X11078000Y-8291000D01*
X11078000Y-8445000D02*
X11178000Y-8545000D01*
X11178000Y-8445000D02*
X11078000Y-8545000D01*
X11078000Y-9348000D02*
X11178000Y-9448000D01*
X11178000Y-9348000D02*
X11078000Y-9448000D01*
X11078000Y-9602000D02*
X11178000Y-9702000D01*
X11178000Y-9602000D02*
X11078000Y-9702000D01*
X11078000Y-9856000D02*
X11178000Y-9956000D01*
X11178000Y-9856000D02*
X11078000Y-9956000D01*
X11078000Y-10110000D02*
X11178000Y-10210000D01*
X11178000Y-10110000D02*
X11078000Y-10210000D01*
X11078000Y-10364000D02*
X11178000Y-10464000D01*
X11178000Y-10364000D02*
X11078000Y-10464000D01*
X11078000Y-10618000D02*
X11178000Y-10718000D01*
X11178000Y-10618000D02*
X11078000Y-10718000D01*
X11078000Y-10872000D02*
X11178000Y-10972000D01*
X11178000Y-10872000D02*
X11078000Y-10972000D01*
X11078000Y-11126000D02*
X11178000Y-11226000D01*
X11178000Y-11126000D02*
X11078000Y-11226000D01*
X11078000Y-11380000D02*
X11178000Y-11480000D01*
X11178000Y-11380000D02*
X11078000Y-11480000D01*
X11078000Y-11634000D02*
X11178000Y-11734000D01*
X11178000Y-11634000D02*
X11078000Y-11734000D01*
X11078000Y-11888000D02*
X11178000Y-11988000D01*
X11178000Y-11888000D02*
X11078000Y-11988000D01*
X11078000Y-12142000D02*
X11178000Y-12242000D01*
X11178000Y-12142000D02*
X11078000Y-12242000D01*
X11078000Y-12396000D02*
X11178000Y-12496000D01*
X11178000Y-12396000D02*
X11078000Y-12496000D01*
X11078000Y-12650000D02*
X11178000Y-12750000D01*
X11178000Y-12650000D02*
X11078000Y-12750000D01*
X11078000Y-12904000D02*
X11178000Y-13004000D01*
X11178000Y-12904000D02*
X11078000Y-13004000D01*
X11078000Y-13158000D02*
X11178000Y-13258000D01*
X11178000Y-13158000D02*
X11078000Y-13258000D01*
X11078000Y-13412000D02*
X11178000Y-13512000D01*
X11178000Y-13412000D02*
X11078000Y-13512000D01*
X11078000Y-13666000D02*
X11178000Y-13766000D01*
X11178000Y-13666000D02*
X11078000Y-13766000D01*
X11078000Y-13920000D02*
X11178000Y-14020000D01*
X11178000Y-13920000D02*
X11078000Y-14020000D01*
X11078000Y-14174000D02*
X11178000Y-14274000D01*
X11178000Y-14174000D02*
X11078000Y-14274000D01*
X13824000Y-3619000D02*
X13924000Y-3719000D01*
X13924000Y-3619000D02*
X13824000Y-3719000D01*
X13824000Y-3873000D02*
X13924000Y-3973000D01*
X13924000Y-3873000D02*
X13824000Y-3973000D01*
X13824000Y-4127000D02*
X13924000Y-4227000D01*
X13924000Y-4127000D02*
X13824000Y-4227000D01*
X13824000Y-4381000D02*
X13924000Y-4481000D01*
X13924000Y-4381000D02*
X13824000Y-4481000D01*
X13824000Y-4635000D02*
X13924000Y-4735000D01*
X13924000Y-4635000D02*
X13824000Y-4735000D01*
X13824000Y-4889000D02*
X13924000Y-4989000D01*
X13924000Y-4889000D02*
X13824000Y-4989000D01*
X13824000Y-5143000D02*
X13924000Y-5243000D01*
X13924000Y-5143000D02*
X13824000Y-5243000D01*
X13824000Y-5397000D02*
X13924000Y-5497000D01*
X13924000Y-5397000D02*
X13824000Y-5497000D01*
X13824000Y-5651000D02*
X13924000Y-5751000D01*
X13924000Y-5651000D02*
X13824000Y-5751000D01*
X13824000Y-5905000D02*
X13924000Y-6005000D01*
X13924000Y-5905000D02*
X13824000Y-6005000D01*
X13824000Y-6159000D02*
X13924000Y-6259000D01*
X13924000Y-6159000D02*
X13824000Y-6259000D01*
X13824000Y-6413000D02*
X13924000Y-6513000D01*
X13924000Y-6413000D02*
X13824000Y-6513000D01*
X13824000Y-6667000D02*
X13924000Y-6767000D01*
X13924000Y-6667000D02*
X13824000Y-6767000D01*
X13824000Y-6921000D02*
X13924000Y-7021000D01*
X13924000Y-6921000D02*
X13824000Y-7021000D01*
X13824000Y-7175000D02*
X13924000Y-7275000D01*
X13924000Y-7175000D02*
X13824000Y-7275000D01*
X13824000Y-7429000D02*
X13924000Y-7529000D01*
X13924000Y-7429000D02*
X13824000Y-7529000D01*
X13824000Y-7683000D02*
X13924000Y-7783000D01*
X13924000Y-7683000D02*
X13824000Y-7783000D01*
X13824000Y-7937000D02*
X13924000Y-8037000D01*
X13924000Y-7937000D02*
X13824000Y-8037000D01*
X13824000Y-8191000D02*
X13924000Y-8291000D01*
X13924000Y-8191000D02*
X13824000Y-8291000D01*
X13824000Y-8445000D02*
X13924000Y-8545000D01*
X13924000Y-8445000D02*
X13824000Y-8545000D01*
X13824000Y-9348000D02*
X13924000Y-9448000D01*
X13924000Y-9348000D02*
X13824000Y-9448000D01*
X13824000Y-9602000D02*
X13924000Y-9702000D01*
X13924000Y-9602000D02*
X13824000Y-9702000D01*
X13824000Y-9856000D02*
X13924000Y-9956000D01*
X13924000Y-9856000D02*
X13824000Y-9956000D01*
X13824000Y-10110000D02*
X13924000Y-10210000D01*
X13924000Y-10110000D02*
X13824000Y-10210000D01*
X13824000Y-10364000D02*
X13924000Y-10464000D01*
X13924000Y-10364000D02*
X13824000Y-10464000D01*
X13824000Y-10618000D02*
X13924000Y-10718000D01*
X13924000Y-10618000D02*
X13824000Y-10718000D01*
X13824000Y-10872000D02*
X13924000Y-10972000D01*
X13924000Y-10872000D02*
X13824000Y-10972000D01*
X13824000Y-11126000D02*
X13924000Y-11226000D01*
X13924000Y-11126000D02*
X13824000Y-11226000D01*
X13824000Y-11380000D02*
X13924000Y-11480000D01*
X13924000Y-11380000D02*
X13824000Y-11480000D01*
X13824000Y-11634000D02*
X13924000Y-11734000D01*
X13924000Y-11634000D02*
X13824000Y-11734000D01*
X13824000Y-11888000D02*
X13924000Y-11988000D01*
X13924000Y-11888000D02*
X13824000Y-11988000D01*
X13824000Y-12142000D02*
X13924000Y-12242000D01*
X13924000Y-12142000D02*
X13824000Y-12242000D01*
X13824000Y-12396000D02*
X13924000Y-12496000D01*
X13924000Y-12396000D02*
X13824000Y-12496000D01*
X13824000Y-12650000D02*
X13924000Y-12750000D01*
X13924000Y-12650000D02*
X13824000Y-12750000D01*
X13824000Y-12904000D02*
X13924000Y-13004000D01*
X13924000Y-12904000D02*
X13824000Y-13004000D01*
X13824000Y-13158000D02*
X13924000Y-13258000D01*
X13924000Y-13158000D02*
X13824000Y-13258000D01*
X13824000Y-13412000D02*
X13924000Y-13512000D01*
X13924000Y-13412000D02*
X13824000Y-13512000D01*
X13824000Y-13666000D02*
X13924000Y-13766000D01*
X13924000Y-13666000D02*
X13824000Y-13766000D01*
X13824000Y-13920000D02*
X13924000Y-14020000D01*
X13924000Y-13920000D02*
X13824000Y-14020000D01*
X13824000Y-14174000D02*
X13924000Y-14274000D01*
X13924000Y-14174000D02*
X13824000Y-14274000D01*
X14078000Y-3619000D02*
X14178000Y-3719000D01*
X14178000Y-3619000D02*
X14078000Y-3719000D01*
X14078000Y-3873000D02*
X14178000Y-3973000D01*
X14178000Y-3873000D02*
X14078000Y-3973000D01*
X14078000Y-4127000D02*
X14178000Y-4227000D01*
X14178000Y-4127000D02*
X14078000Y-4227000D01*
X14078000Y-4381000D02*
X14178000Y-4481000D01*
X14178000Y-4381000D02*
X14078000Y-4481000D01*
X14078000Y-4635000D02*
X14178000Y-4735000D01*
X14178000Y-4635000D02*
X14078000Y-4735000D01*
X14078000Y-4889000D02*
X14178000Y-4989000D01*
X14178000Y-4889000D02*
X14078000Y-4989000D01*
X14078000Y-5143000D02*
X14178000Y-5243000D01*
X14178000Y-5143000D02*
X14078000Y-5243000D01*
X14078000Y-5397000D02*
X14178000Y-5497000D01*
X14178000Y-5397000D02*
X14078000Y-5497000D01*
X14078000Y-5651000D02*
X14178000Y-5751000D01*
X14178000Y-5651000D02*
X14078000Y-5751000D01*
X14078000Y-5905000D02*
X14178000Y-6005000D01*
X14178000Y-5905000D02*
X14078000Y-6005000D01*
X14078000Y-6159000D02*
X14178000Y-6259000D01*
X14178000Y-6159000D02*
X14078000Y-6259000D01*
X14078000Y-6413000D02*
X14178000Y-6513000D01*
X14178000Y-6413000D02*
X14078000Y-6513000D01*
X14078000Y-6667000D02*
X14178000Y-6767000D01*
X14178000Y-6667000D02*
X14078000Y-6767000D01*
X14078000Y-6921000D02*
X14178000Y-7021000D01*
X14178000Y-6921000D02*
X14078000Y-7021000D01*
X14078000Y-7175000D02*
X14178000Y-7275000D01*
X14178000Y-7175000D02*
X14078000Y-7275000D01*
X14078000Y-7429000D02*
X14178000Y-7529000D01*
X14178000Y-7429000D02*
X14078000Y-7529000D01*
X14078000Y-7683000D02*
X14178000Y-7783000D01*
X14178000Y-7683000D02*
X14078000Y-7783000D01*
X14078000Y-7937000D02*
X14178000Y-8037000D01*
X14178000Y-7937000D02*
X14078000Y-8037000D01*
X14078000Y-8191000D02*
X14178000Y-8291000D01*
X14178000Y-8191000D02*
X14078000Y-8291000D01*
X14078000Y-8445000D02*
X14178000Y-8545000D01*
X14178000Y-8445000D02*
X14078000Y-8545000D01*
X14078000Y-9348000D02*
X14178000Y-9448000D01*
X14178000Y-9348000D02*
X14078000Y-9448000D01*
X14078000Y-9602000D02*
X14178000Y-9702000D01*
X14178000Y-9602000D02*
X14078000Y-9702000D01*
X14078000Y-9856000D02*
X14178000Y-9956000D01*
X14178000Y-9856000D02*
X14078000Y-9956000D01*
X14078000Y-10110000D02*
X14178000Y-10210000D01*
X14178000Y-10110000D02*
X14078000Y-10210000D01*
X14078000Y-10364000D02*
X14178000Y-10464000D01*
X14178000Y-10364000D02*
X14078000Y-10464000D01*
X14078000Y-10618000D02*
X14178000Y-10718000D01*
X14178000Y-10618000D02*
X14078000Y-10718000D01*
X14078000Y-10872000D02*
X14178000Y-10972000D01*
X14178000Y-10872000D02*
X14078000Y-10972000D01*
X14078000Y-11126000D02*
X14178000Y-11226000D01*
X14178000Y-11126000D02*
X14078000Y-11226000D01*
X14078000Y-11380000D02*
X14178000Y-11480000D01*
X14178000Y-11380000D02*
X14078000Y-11480000D01*
X14078000Y-11634000D02*
X14178000Y-11734000D01*
X14178000Y-11634000D02*
X14078000Y-11734000D01*
X14078000Y-11888000D02*
X14178000Y-11988000D01*
X14178000Y-11888000D02*
X14078000Y-11988000D01*
X14078000Y-12142000D02*
X14178000Y-12242000D01*
X14178000Y-12142000D02*
X14078000Y-12242000D01*
X14078000Y-12396000D02*
X14178000Y-12496000D01*
X14178000Y-12396000D02*
X14078000Y-12496000D01*
X14078000Y-12650000D02*
X14178000Y-12750000D01*
X14178000Y-12650000D02*
X14078000Y-12750000D01*
X14078000Y-12904000D02*
X14178000Y-13004000D01*
X14178000Y-12904000D02*
X14078000Y-13004000D01*
X14078000Y-13158000D02*
X14178000Y-13258000D01*
X14178000Y-13158000D02*
X14078000Y-13258000D01*
X14078000Y-13412000D02*
X14178000Y-13512000D01*
X14178000Y-13412000D02*
X14078000Y-13512000D01*
X14078000Y-13666000D02*
X14178000Y-13766000D01*
X14178000Y-13666000D02*
X14078000Y-13766000D01*
X14078000Y-13920000D02*
X14178000Y-14020000D01*
X14178000Y-13920000D02*
X14078000Y-14020000D01*
X14078000Y-14174000D02*
X14178000Y-14274000D01*
X14178000Y-14174000D02*
X14078000Y-14274000D01*
X16824000Y-3619000D02*
X16924000Y-3719000D01*
X16924000Y-3619000D02*
X16824000Y-3719000D01*
X16824000Y-3873000D02*
X16924000Y-3973000D01*
X16924000Y-3873000D02*
X16824000Y-3973000D01*
X16824000Y-4127000D02*
X16924000Y-4227000D01*
X16924000Y-4127000D02*
X16824000Y-4227000D01*
X16824000Y-4381000D02*
X16924000Y-4481000D01*
X16924000Y-4381000D02*
X16824000Y-4481000D01*
X16824000Y-4635000D02*
X16924000Y-4735000D01*
X16924000Y-4635000D02*
X16824000Y-4735000D01*
X16824000Y-4889000D02*
X16924000Y-4989000D01*
X16924000Y-4889000D02*
X16824000Y-4989000D01*
X16824000Y-5143000D02*
X16924000Y-5243000D01*
X16924000Y-5143000D02*
X16824000Y-5243000D01*
X16824000Y-5397000D02*
X16924000Y-5497000D01*
X16924000Y-5397000D02*
X16824000Y-5497000D01*
X16824000Y-5651000D02*
X16924000Y-5751000D01*
X16924000Y-5651000D02*
X16824000Y-5751000D01*
X16824000Y-5905000D02*
X16924000Y-6005000D01*
X16924000Y-5905000D02*
X16824000Y-6005000D01*
X16824000Y-6159000D02*
X16924000Y-6259000D01*
X16924000Y-6159000D02*
X16824000Y-6259000D01*
X16824000Y-6413000D02*
X16924000Y-6513000D01*
X16924000Y-6413000D02*
X16824000Y-6513000D01*
X16824000Y-6667000D02*
X16924000Y-6767000D01*
X16924000Y-6667000D02*
X16824000Y-6767000D01*
X16824000Y-6921000D02*
X16924000Y-7021000D01*
X16924000Y-6921000D02*
X16824000Y-7021000D01*
X16824000Y-7175000D02*
X16924000Y-7275000D01*
X16924000Y-7175000D02*
X16824000Y-7275000D01*
X16824000Y-7429000D02*
X16924000Y-7529000D01*
X16924000Y-7429000D02*
X16824000Y-7529000D01*
X16824000Y-7683000D02*
X16924000Y-7783000D01*
X16924000Y-7683000D02*
X16824000Y-7783000D01*
X16824000Y-7937000D02*
X16924000Y-8037000D01*
X16924000Y-7937000D02*
X16824000Y-8037000D01*
X16824000Y-8191000D02*
X16924000Y-8291000D01*
X16924000Y-8191000D02*
X16824000Y-8291000D01*
X16824000Y-8445000D02*
X16924000Y-8545000D01*
X16924000Y-8445000D02*
X16824000Y-8545000D01*
X16824000Y-9348000D02*
X16924000Y-9448000D01*
X16924000Y-9348000D02*
X16824000Y-9448000D01*
X16824000Y-9602000D02*
X16924000Y-9702000D01*
X16924000Y-9602000D02*
X16824000Y-9702000D01*
X16824000Y-9856000D02*
X16924000Y-9956000D01*
X16924000Y-9856000D02*
X16824000Y-9956000D01*
X16824000Y-10110000D02*
X16924000Y-10210000D01*
X16924000Y-10110000D02*
X16824000Y-10210000D01*
X16824000Y-10364000D02*
X16924000Y-10464000D01*
X16924000Y-10364000D02*
X16824000Y-10464000D01*
X16824000Y-10618000D02*
X16924000Y-10718000D01*
X16924000Y-10618000D02*
X16824000Y-10718000D01*
X16824000Y-10872000D02*
X16924000Y-10972000D01*
X16924000Y-10872000D02*
X16824000Y-10972000D01*
X16824000Y-11126000D02*
X16924000Y-11226000D01*
X16924000Y-11126000D02*
X16824000Y-11226000D01*
X16824000Y-11380000D02*
X16924000Y-11480000D01*
X16924000Y-11380000D02*
X16824000Y-11480000D01*
X16824000Y-11634000D02*
X16924000Y-11734000D01*
X16924000Y-11634000D02*
X16824000Y-11734000D01*
X16824000Y-11888000D02*
X16924000Y-11988000D01*
X16924000Y-11888000D02*
X16824000Y-11988000D01*
X16824000Y-12142000D02*
X16924000Y-12242000D01*
X16924000Y-12142000D02*
X16824000Y-12242000D01*
X16824000Y-12396000D02*
X16924000Y-12496000D01*
X16924000Y-12396000D02*
X16824000Y-12496000D01*
X16824000Y-12650000D02*
X16924000Y-12750000D01*
X16924000Y-12650000D02*
X16824000Y-12750000D01*
X16824000Y-12904000D02*
X16924000Y-13004000D01*
X16924000Y-12904000D02*
X16824000Y-13004000D01*
X16824000Y-13158000D02*
X16924000Y-13258000D01*
X16924000Y-13158000D02*
X16824000Y-13258000D01*
X16824000Y-13412000D02*
X16924000Y-13512000D01*
X16924000Y-13412000D02*
X16824000Y-13512000D01*
X16824000Y-13666000D02*
X16924000Y-13766000D01*
X16924000Y-13666000D02*
X16824000Y-13766000D01*
X16824000Y-13920000D02*
X16924000Y-14020000D01*
X16924000Y-13920000D02*
X16824000Y-14020000D01*
X16824000Y-14174000D02*
X16924000Y-14274000D01*
X16924000Y-14174000D02*
X16824000Y-14274000D01*
X17078000Y-3619000D02*
X17178000Y-3719000D01*
X17178000Y-3619000D02*
X17078000Y-3719000D01*
X17078000Y-3873000D02*
X17178000Y-3973000D01*
X17178000Y-3873000D02*
X17078000Y-3973000D01*
X17078000Y-4127000D02*
X17178000Y-4227000D01*
X17178000Y-4127000D02*
X17078000Y-4227000D01*
X17078000Y-4381000D02*
X17178000Y-4481000D01*
X17178000Y-4381000D02*
X17078000Y-4481000D01*
X17078000Y-4635000D02*
X17178000Y-4735000D01*
X17178000Y-4635000D02*
X17078000Y-4735000D01*
X17078000Y-4889000D02*
X17178000Y-4989000D01*
X17178000Y-4889000D02*
X17078000Y-4989000D01*
X17078000Y-5143000D02*
X17178000Y-5243000D01*
X17178000Y-5143000D02*
X17078000Y-5243000D01*
X17078000Y-5397000D02*
X17178000Y-5497000D01*
X17178000Y-5397000D02*
X17078000Y-5497000D01*
X17078000Y-5651000D02*
X17178000Y-5751000D01*
X17178000Y-5651000D02*
X17078000Y-5751000D01*
X17078000Y-5905000D02*
X17178000Y-6005000D01*
X17178000Y-5905000D02*
X17078000Y-6005000D01*
X17078000Y-6159000D02*
X17178000Y-6259000D01*
X17178000Y-6159000D02*
X17078000Y-6259000D01*
X17078000Y-6413000D02*
X17178000Y-6513000D01*
X17178000Y-6413000D02*
X17078000Y-6513000D01*
X17078000Y-6667000D02*
X17178000Y-6767000D01*
X17178000Y-6667000D02*
X17078000Y-6767000D01*
X17078000Y-6921000D02*
X17178000Y-7021000D01*
X17178000Y-6921000D02*
X17078000Y-7021000D01*
X17078000Y-7175000D02*
X17178000Y-7275000D01*
X17178000Y-7175000D02*
X17078000Y-7275000D01*
X17078000Y-7429000D02*
X17178000Y-7529000D01*
X17178000Y-7429000D02*
X17078000Y-7529000D01*
X17078000Y-7683000D02*
X17178000Y-7783000D01*
X17178000Y-7683000D02*
X17078000Y-7783000D01*
X17078000Y-7937000D02*
X17178000Y-8037000D01*
X17178000Y-7937000D02*
X17078000Y-8037000D01*
X17078000Y-8191000D02*
X17178000Y-8291000D01*
X17178000Y-8191000D02*
X17078000Y-8291000D01*
X17078000Y-8445000D02*
X17178000Y-8545000D01*
X17178000Y-8445000D02*
X17078000Y-8545000D01*
X17078000Y-9348000D02*
X17178000Y-9448000D01*
X17178000Y-9348000D02*
X17078000Y-9448000D01*
X17078000Y-9602000D02*
X17178000Y-9702000D01*
X17178000Y-9602000D02*
X17078000Y-9702000D01*
X17078000Y-9856000D02*
X17178000Y-9956000D01*
X17178000Y-9856000D02*
X17078000Y-9956000D01*
X17078000Y-10110000D02*
X17178000Y-10210000D01*
X17178000Y-10110000D02*
X17078000Y-10210000D01*
X17078000Y-10364000D02*
X17178000Y-10464000D01*
X17178000Y-10364000D02*
X17078000Y-10464000D01*
X17078000Y-10618000D02*
X17178000Y-10718000D01*
X17178000Y-10618000D02*
X17078000Y-10718000D01*
X17078000Y-10872000D02*
X17178000Y-10972000D01*
X17178000Y-10872000D02*
X17078000Y-10972000D01*
X17078000Y-11126000D02*
X17178000Y-11226000D01*
X17178000Y-11126000D02*
X17078000Y-11226000D01*
X17078000Y-11380000D02*
X17178000Y-11480000D01*
X17178000Y-11380000D02*
X17078000Y-11480000D01*
X17078000Y-11634000D02*
X17178000Y-11734000D01*
X17178000Y-11634000D02*
X17078000Y-11734000D01*
X17078000Y-11888000D02*
X17178000Y-11988000D01*
X17178000Y-11888000D02*
X17078000Y-11988000D01*
X17078000Y-12142000D02*
X17178000Y-12242000D01*
X17178000Y-12142000D02*
X17078000Y-12242000D01*
X17078000Y-12396000D02*
X17178000Y-12496000D01*
X17178000Y-12396000D02*
X17078000Y-12496000D01*
X17078000Y-12650000D02*
X17178000Y-12750000D01*
X17178000Y-12650000D02*
X17078000Y-12750000D01*
X17078000Y-12904000D02*
X17178000Y-13004000D01*
X17178000Y-12904000D02*
X17078000Y-13004000D01*
X17078000Y-13158000D02*
X17178000Y-13258000D01*
X17178000Y-13158000D02*
X17078000Y-13258000D01*
X17078000Y-13412000D02*
X17178000Y-13512000D01*
X17178000Y-13412000D02*
X17078000Y-13512000D01*
X17078000Y-13666000D02*
X17178000Y-13766000D01*
X17178000Y-13666000D02*
X17078000Y-13766000D01*
X17078000Y-13920000D02*
X17178000Y-14020000D01*
X17178000Y-13920000D02*
X17078000Y-14020000D01*
X17078000Y-14174000D02*
X17178000Y-14274000D01*
X17178000Y-14174000D02*
X17078000Y-14274000D01*
X18238000Y-3619000D02*
X18338000Y-3719000D01*
X18338000Y-3619000D02*
X18238000Y-3719000D01*
X18238000Y-3873000D02*
X18338000Y-3973000D01*
X18338000Y-3873000D02*
X18238000Y-3973000D01*
X18238000Y-4127000D02*
X18338000Y-4227000D01*
X18338000Y-4127000D02*
X18238000Y-4227000D01*
X18238000Y-4381000D02*
X18338000Y-4481000D01*
X18338000Y-4381000D02*
X18238000Y-4481000D01*
X18238000Y-4635000D02*
X18338000Y-4735000D01*
X18338000Y-4635000D02*
X18238000Y-4735000D01*
X18238000Y-4889000D02*
X18338000Y-4989000D01*
X18338000Y-4889000D02*
X18238000Y-4989000D01*
X18238000Y-5143000D02*
X18338000Y-5243000D01*
X18338000Y-5143000D02*
X18238000Y-5243000D01*
X18238000Y-5397000D02*
X18338000Y-5497000D01*
X18338000Y-5397000D02*
X18238000Y-5497000D01*
X18238000Y-5651000D02*
X18338000Y-5751000D01*
X18338000Y-5651000D02*
X18238000Y-5751000D01*
X18238000Y-5905000D02*
X18338000Y-6005000D01*
X18338000Y-5905000D02*
X18238000Y-6005000D01*
X18238000Y-6159000D02*
X18338000Y-6259000D01*
X18338000Y-6159000D02*
X18238000Y-6259000D01*
X18238000Y-6413000D02*
X18338000Y-6513000D01*
X18338000Y-6413000D02*
X18238000Y-6513000D01*
X18238000Y-6667000D02*
X18338000Y-6767000D01*
X18338000Y-6667000D02*
X18238000Y-6767000D01*
X18238000Y-6921000D02*
X18338000Y-7021000D01*
X18338000Y-6921000D02*
X18238000Y-7021000D01*
X18238000Y-7175000D02*
X18338000Y-7275000D01*
X18338000Y-7175000D02*
X18238000Y-7275000D01*
X18238000Y-7429000D02*
X18338000Y-7529000D01*
X18338000Y-7429000D02*
X18238000Y-7529000D01*
X18238000Y-7683000D02*
X18338000Y-7783000D01*
X18338000Y-7683000D02*
X18238000Y-7783000D01*
X18238000Y-7937000D02*
X18338000Y-8037000D01*
X18338000Y-7937000D02*
X18238000Y-8037000D01*
X18238000Y-8191000D02*
X18338000Y-8291000D01*
X18338000Y-8191000D02*
X18238000Y-8291000D01*
X18238000Y-8445000D02*
X18338000Y-8545000D01*
X18338000Y-8445000D02*
X18238000Y-8545000D01*
X18238000Y-9348000D02*
X18338000Y-9448000D01*
X18338000Y-9348000D02*
X18238000Y-9448000D01*
X18238000Y-9602000D02*
X18338000Y-9702000D01*
X18338000Y-9602000D02*
X18238000Y-9702000D01*
X18238000Y-9856000D02*
X18338000Y-9956000D01*
X18338000Y-9856000D02*
X18238000Y-9956000D01*
X18238000Y-10110000D02*
X18338000Y-10210000D01*
X18338000Y-10110000D02*
X18238000Y-10210000D01*
X18238000Y-10364000D02*
X18338000Y-10464000D01*
X18338000Y-10364000D02*
X18238000Y-10464000D01*
X18238000Y-10618000D02*
X18338000Y-10718000D01*
X18338000Y-10618000D02*
X18238000Y-10718000D01*
X18238000Y-10872000D02*
X18338000Y-10972000D01*
X18338000Y-10872000D02*
X18238000Y-10972000D01*
X18238000Y-11126000D02*
X18338000Y-11226000D01*
X18338000Y-11126000D02*
X18238000Y-11226000D01*
X18238000Y-11380000D02*
X18338000Y-11480000D01*
X18338000Y-11380000D02*
X18238000Y-11480000D01*
X18238000Y-11634000D02*
X18338000Y-11734000D01*
X18338000Y-11634000D02*
X18238000Y-11734000D01*
X18238000Y-11888000D02*
X18338000Y-11988000D01*
X18338000Y-11888000D02*
X18238000Y-11988000D01*
X18238000Y-12142000D02*
X18338000Y-12242000D01*
X18338000Y-12142000D02*
X18238000Y-12242000D01*
X18238000Y-12396000D02*
X18338000Y-12496000D01*
X18338000Y-12396000D02*
X18238000Y-12496000D01*
X18238000Y-12650000D02*
X18338000Y-12750000D01*
X18338000Y-12650000D02*
X18238000Y-12750000D01*
X18238000Y-12904000D02*
X18338000Y-13004000D01*
X18338000Y-12904000D02*
X18238000Y-13004000D01*
X18238000Y-13158000D02*
X18338000Y-13258000D01*
X18338000Y-13158000D02*
X18238000Y-13258000D01*
X18238000Y-13412000D02*
X18338000Y-13512000D01*
X18338000Y-13412000D02*
X18238000Y-13512000D01*
X18238000Y-13666000D02*
X18338000Y-13766000D01*
X18338000Y-13666000D02*
X18238000Y-13766000D01*
X18238000Y-13920000D02*
X18338000Y-14020000D01*
X18338000Y-13920000D02*
X18238000Y-14020000D01*
X18238000Y-14174000D02*
X18338000Y-14274000D01*
X18338000Y-14174000D02*
X18238000Y-14274000D01*
X18492000Y-3619000D02*
X18592000Y-3719000D01*
X18592000Y-3619000D02*
X18492000Y-3719000D01*
X18492000Y-3873000D02*
X18592000Y-3973000D01*
X18592000Y-3873000D02*
X18492000Y-3973000D01*
X18492000Y-4127000D02*
X18592000Y-4227000D01*
X18592000Y-4127000D02*
X18492000Y-4227000D01*
X18492000Y-4381000D02*
X18592000Y-4481000D01*
X18592000Y-4381000D02*
X18492000Y-4481000D01*
X18492000Y-4635000D02*
X18592000Y-4735000D01*
X18592000Y-4635000D02*
X18492000Y-4735000D01*
X18492000Y-4889000D02*
X18592000Y-4989000D01*
X18592000Y-4889000D02*
X18492000Y-4989000D01*
X18492000Y-5143000D02*
X18592000Y-5243000D01*
X18592000Y-5143000D02*
X18492000Y-5243000D01*
X18492000Y-5397000D02*
X18592000Y-5497000D01*
X18592000Y-5397000D02*
X18492000Y-5497000D01*
X18492000Y-5651000D02*
X18592000Y-5751000D01*
X18592000Y-5651000D02*
X18492000Y-5751000D01*
X18492000Y-5905000D02*
X18592000Y-6005000D01*
X18592000Y-5905000D02*
X18492000Y-6005000D01*
X18492000Y-6159000D02*
X18592000Y-6259000D01*
X18592000Y-6159000D02*
X18492000Y-6259000D01*
X18492000Y-6413000D02*
X18592000Y-6513000D01*
X18592000Y-6413000D02*
X18492000Y-6513000D01*
X18492000Y-6667000D02*
X18592000Y-6767000D01*
X18592000Y-6667000D02*
X18492000Y-6767000D01*
X18492000Y-6921000D02*
X18592000Y-7021000D01*
X18592000Y-6921000D02*
X18492000Y-7021000D01*
X18492000Y-7175000D02*
X18592000Y-7275000D01*
X18592000Y-7175000D02*
X18492000Y-7275000D01*
X18492000Y-7429000D02*
X18592000Y-7529000D01*
X18592000Y-7429000D02*
X18492000Y-7529000D01*
X18492000Y-7683000D02*
X18592000Y-7783000D01*
X18592000Y-7683000D02*
X18492000Y-7783000D01*
X18492000Y-7937000D02*
X18592000Y-8037000D01*
X18592000Y-7937000D02*
X18492000Y-8037000D01*
X18492000Y-8191000D02*
X18592000Y-8291000D01*
X18592000Y-8191000D02*
X18492000Y-8291000D01*
X18492000Y-8445000D02*
X18592000Y-8545000D01*
X18592000Y-8445000D02*
X18492000Y-8545000D01*
X18492000Y-9348000D02*
X18592000Y-9448000D01*
X18592000Y-9348000D02*
X18492000Y-9448000D01*
X18492000Y-9602000D02*
X18592000Y-9702000D01*
X18592000Y-9602000D02*
X18492000Y-9702000D01*
X18492000Y-9856000D02*
X18592000Y-9956000D01*
X18592000Y-9856000D02*
X18492000Y-9956000D01*
X18492000Y-10110000D02*
X18592000Y-10210000D01*
X18592000Y-10110000D02*
X18492000Y-10210000D01*
X18492000Y-10364000D02*
X18592000Y-10464000D01*
X18592000Y-10364000D02*
X18492000Y-10464000D01*
X18492000Y-10618000D02*
X18592000Y-10718000D01*
X18592000Y-10618000D02*
X18492000Y-10718000D01*
X18492000Y-10872000D02*
X18592000Y-10972000D01*
X18592000Y-10872000D02*
X18492000Y-10972000D01*
X18492000Y-11126000D02*
X18592000Y-11226000D01*
X18592000Y-11126000D02*
X18492000Y-11226000D01*
X18492000Y-11380000D02*
X18592000Y-11480000D01*
X18592000Y-11380000D02*
X18492000Y-11480000D01*
X18492000Y-11634000D02*
X18592000Y-11734000D01*
X18592000Y-11634000D02*
X18492000Y-11734000D01*
X18492000Y-11888000D02*
X18592000Y-11988000D01*
X18592000Y-11888000D02*
X18492000Y-11988000D01*
X18492000Y-12142000D02*
X18592000Y-12242000D01*
X18592000Y-12142000D02*
X18492000Y-12242000D01*
X18492000Y-12396000D02*
X18592000Y-12496000D01*
X18592000Y-12396000D02*
X18492000Y-12496000D01*
X18492000Y-12650000D02*
X18592000Y-12750000D01*
X18592000Y-12650000D02*
X18492000Y-12750000D01*
X18492000Y-12904000D02*
X18592000Y-13004000D01*
X18592000Y-12904000D02*
X18492000Y-13004000D01*
X18492000Y-13158000D02*
X18592000Y-13258000D01*
X18592000Y-13158000D02*
X18492000Y-13258000D01*
X18492000Y-13412000D02*
X18592000Y-13512000D01*
X18592000Y-13412000D02*
X18492000Y-13512000D01*
X18492000Y-13666000D02*
X18592000Y-13766000D01*
X18592000Y-13666000D02*
X18492000Y-13766000D01*
X18492000Y-13920000D02*
X18592000Y-14020000D01*
X18592000Y-13920000D02*
X18492000Y-14020000D01*
X18492000Y-14174000D02*
X18592000Y-14274000D01*
X18592000Y-14174000D02*
X18492000Y-14274000D01*
D11*
X6482263Y-15316484D02*
X6482263Y-15116484D01*
X6482263Y-15116484D02*
X6529882Y-15116484D01*
X6529882Y-15116484D02*
X6558454Y-15126008D01*
X6558454Y-15126008D02*
X6577501Y-15145055D01*
X6577501Y-15145055D02*
X6587025Y-15164103D01*
X6587025Y-15164103D02*
X6596549Y-15202198D01*
X6596549Y-15202198D02*
X6596549Y-15230769D01*
X6596549Y-15230769D02*
X6587025Y-15268865D01*
X6587025Y-15268865D02*
X6577501Y-15287912D01*
X6577501Y-15287912D02*
X6558454Y-15306960D01*
X6558454Y-15306960D02*
X6529882Y-15316484D01*
X6529882Y-15316484D02*
X6482263Y-15316484D01*
X6682263Y-15316484D02*
X6682263Y-15183150D01*
X6682263Y-15221246D02*
X6691787Y-15202198D01*
X6691787Y-15202198D02*
X6701311Y-15192674D01*
X6701311Y-15192674D02*
X6720358Y-15183150D01*
X6720358Y-15183150D02*
X6739406Y-15183150D01*
X6806073Y-15316484D02*
X6806073Y-15183150D01*
X6806073Y-15116484D02*
X6796549Y-15126008D01*
X6796549Y-15126008D02*
X6806073Y-15135531D01*
X6806073Y-15135531D02*
X6815597Y-15126008D01*
X6815597Y-15126008D02*
X6806073Y-15116484D01*
X6806073Y-15116484D02*
X6806073Y-15135531D01*
X6929882Y-15316484D02*
X6910835Y-15306960D01*
X6910835Y-15306960D02*
X6901311Y-15287912D01*
X6901311Y-15287912D02*
X6901311Y-15116484D01*
X7034644Y-15316484D02*
X7015597Y-15306960D01*
X7015597Y-15306960D02*
X7006073Y-15287912D01*
X7006073Y-15287912D02*
X7006073Y-15116484D01*
X7263216Y-15316484D02*
X7263216Y-15116484D01*
X7263216Y-15116484D02*
X7329882Y-15259341D01*
X7329882Y-15259341D02*
X7396549Y-15116484D01*
X7396549Y-15116484D02*
X7396549Y-15316484D01*
X7577501Y-15316484D02*
X7577501Y-15211722D01*
X7577501Y-15211722D02*
X7567978Y-15192674D01*
X7567978Y-15192674D02*
X7548930Y-15183150D01*
X7548930Y-15183150D02*
X7510835Y-15183150D01*
X7510835Y-15183150D02*
X7491787Y-15192674D01*
X7577501Y-15306960D02*
X7558454Y-15316484D01*
X7558454Y-15316484D02*
X7510835Y-15316484D01*
X7510835Y-15316484D02*
X7491787Y-15306960D01*
X7491787Y-15306960D02*
X7482263Y-15287912D01*
X7482263Y-15287912D02*
X7482263Y-15268865D01*
X7482263Y-15268865D02*
X7491787Y-15249817D01*
X7491787Y-15249817D02*
X7510835Y-15240293D01*
X7510835Y-15240293D02*
X7558454Y-15240293D01*
X7558454Y-15240293D02*
X7577501Y-15230769D01*
X7672739Y-15183150D02*
X7672739Y-15383150D01*
X7672739Y-15192674D02*
X7691787Y-15183150D01*
X7691787Y-15183150D02*
X7729882Y-15183150D01*
X7729882Y-15183150D02*
X7748930Y-15192674D01*
X7748930Y-15192674D02*
X7758454Y-15202198D01*
X7758454Y-15202198D02*
X7767978Y-15221246D01*
X7767978Y-15221246D02*
X7767978Y-15278388D01*
X7767978Y-15278388D02*
X7758454Y-15297436D01*
X7758454Y-15297436D02*
X7748930Y-15306960D01*
X7748930Y-15306960D02*
X7729882Y-15316484D01*
X7729882Y-15316484D02*
X7691787Y-15316484D01*
X7691787Y-15316484D02*
X7672739Y-15306960D01*
X7853692Y-15297436D02*
X7863216Y-15306960D01*
X7863216Y-15306960D02*
X7853692Y-15316484D01*
X7853692Y-15316484D02*
X7844168Y-15306960D01*
X7844168Y-15306960D02*
X7853692Y-15297436D01*
X7853692Y-15297436D02*
X7853692Y-15316484D01*
X7853692Y-15192674D02*
X7863216Y-15202198D01*
X7863216Y-15202198D02*
X7853692Y-15211722D01*
X7853692Y-15211722D02*
X7844168Y-15202198D01*
X7844168Y-15202198D02*
X7853692Y-15192674D01*
X7853692Y-15192674D02*
X7853692Y-15211722D01*
D10*
X6121486Y-15595000D02*
X6221486Y-15695000D01*
X6221486Y-15595000D02*
X6121486Y-15695000D01*
D11*
X6587025Y-15736484D02*
X6472739Y-15736484D01*
X6529882Y-15736484D02*
X6529882Y-15536484D01*
X6529882Y-15536484D02*
X6510835Y-15565055D01*
X6510835Y-15565055D02*
X6491787Y-15584103D01*
X6491787Y-15584103D02*
X6472739Y-15593627D01*
X6672739Y-15717436D02*
X6682263Y-15726960D01*
X6682263Y-15726960D02*
X6672739Y-15736484D01*
X6672739Y-15736484D02*
X6663216Y-15726960D01*
X6663216Y-15726960D02*
X6672739Y-15717436D01*
X6672739Y-15717436D02*
X6672739Y-15736484D01*
X6806073Y-15536484D02*
X6825120Y-15536484D01*
X6825120Y-15536484D02*
X6844168Y-15546008D01*
X6844168Y-15546008D02*
X6853692Y-15555531D01*
X6853692Y-15555531D02*
X6863216Y-15574579D01*
X6863216Y-15574579D02*
X6872739Y-15612674D01*
X6872739Y-15612674D02*
X6872739Y-15660293D01*
X6872739Y-15660293D02*
X6863216Y-15698388D01*
X6863216Y-15698388D02*
X6853692Y-15717436D01*
X6853692Y-15717436D02*
X6844168Y-15726960D01*
X6844168Y-15726960D02*
X6825120Y-15736484D01*
X6825120Y-15736484D02*
X6806073Y-15736484D01*
X6806073Y-15736484D02*
X6787025Y-15726960D01*
X6787025Y-15726960D02*
X6777501Y-15717436D01*
X6777501Y-15717436D02*
X6767978Y-15698388D01*
X6767978Y-15698388D02*
X6758454Y-15660293D01*
X6758454Y-15660293D02*
X6758454Y-15612674D01*
X6758454Y-15612674D02*
X6767978Y-15574579D01*
X6767978Y-15574579D02*
X6777501Y-15555531D01*
X6777501Y-15555531D02*
X6787025Y-15546008D01*
X6787025Y-15546008D02*
X6806073Y-15536484D01*
X6996549Y-15536484D02*
X7015597Y-15536484D01*
X7015597Y-15536484D02*
X7034644Y-15546008D01*
X7034644Y-15546008D02*
X7044168Y-15555531D01*
X7044168Y-15555531D02*
X7053692Y-15574579D01*
X7053692Y-15574579D02*
X7063216Y-15612674D01*
X7063216Y-15612674D02*
X7063216Y-15660293D01*
X7063216Y-15660293D02*
X7053692Y-15698388D01*
X7053692Y-15698388D02*
X7044168Y-15717436D01*
X7044168Y-15717436D02*
X7034644Y-15726960D01*
X7034644Y-15726960D02*
X7015597Y-15736484D01*
X7015597Y-15736484D02*
X6996549Y-15736484D01*
X6996549Y-15736484D02*
X6977501Y-15726960D01*
X6977501Y-15726960D02*
X6967978Y-15717436D01*
X6967978Y-15717436D02*
X6958454Y-15698388D01*
X6958454Y-15698388D02*
X6948930Y-15660293D01*
X6948930Y-15660293D02*
X6948930Y-15612674D01*
X6948930Y-15612674D02*
X6958454Y-15574579D01*
X6958454Y-15574579D02*
X6967978Y-15555531D01*
X6967978Y-15555531D02*
X6977501Y-15546008D01*
X6977501Y-15546008D02*
X6996549Y-15536484D01*
X7187025Y-15536484D02*
X7206073Y-15536484D01*
X7206073Y-15536484D02*
X7225120Y-15546008D01*
X7225120Y-15546008D02*
X7234644Y-15555531D01*
X7234644Y-15555531D02*
X7244168Y-15574579D01*
X7244168Y-15574579D02*
X7253692Y-15612674D01*
X7253692Y-15612674D02*
X7253692Y-15660293D01*
X7253692Y-15660293D02*
X7244168Y-15698388D01*
X7244168Y-15698388D02*
X7234644Y-15717436D01*
X7234644Y-15717436D02*
X7225120Y-15726960D01*
X7225120Y-15726960D02*
X7206073Y-15736484D01*
X7206073Y-15736484D02*
X7187025Y-15736484D01*
X7187025Y-15736484D02*
X7167978Y-15726960D01*
X7167978Y-15726960D02*
X7158454Y-15717436D01*
X7158454Y-15717436D02*
X7148930Y-15698388D01*
X7148930Y-15698388D02*
X7139406Y-15660293D01*
X7139406Y-15660293D02*
X7139406Y-15612674D01*
X7139406Y-15612674D02*
X7148930Y-15574579D01*
X7148930Y-15574579D02*
X7158454Y-15555531D01*
X7158454Y-15555531D02*
X7167978Y-15546008D01*
X7167978Y-15546008D02*
X7187025Y-15536484D01*
X7339406Y-15736484D02*
X7339406Y-15603150D01*
X7339406Y-15622198D02*
X7348930Y-15612674D01*
X7348930Y-15612674D02*
X7367978Y-15603150D01*
X7367978Y-15603150D02*
X7396549Y-15603150D01*
X7396549Y-15603150D02*
X7415597Y-15612674D01*
X7415597Y-15612674D02*
X7425120Y-15631722D01*
X7425120Y-15631722D02*
X7425120Y-15736484D01*
X7425120Y-15631722D02*
X7434644Y-15612674D01*
X7434644Y-15612674D02*
X7453692Y-15603150D01*
X7453692Y-15603150D02*
X7482263Y-15603150D01*
X7482263Y-15603150D02*
X7501311Y-15612674D01*
X7501311Y-15612674D02*
X7510835Y-15631722D01*
X7510835Y-15631722D02*
X7510835Y-15736484D01*
X7606073Y-15736484D02*
X7606073Y-15603150D01*
X7606073Y-15622198D02*
X7615597Y-15612674D01*
X7615597Y-15612674D02*
X7634644Y-15603150D01*
X7634644Y-15603150D02*
X7663216Y-15603150D01*
X7663216Y-15603150D02*
X7682263Y-15612674D01*
X7682263Y-15612674D02*
X7691787Y-15631722D01*
X7691787Y-15631722D02*
X7691787Y-15736484D01*
X7691787Y-15631722D02*
X7701311Y-15612674D01*
X7701311Y-15612674D02*
X7720359Y-15603150D01*
X7720359Y-15603150D02*
X7748930Y-15603150D01*
X7748930Y-15603150D02*
X7767978Y-15612674D01*
X7767978Y-15612674D02*
X7777501Y-15631722D01*
X7777501Y-15631722D02*
X7777501Y-15736484D01*
X8167978Y-15526960D02*
X7996549Y-15784103D01*
X8425121Y-15536484D02*
X8444168Y-15536484D01*
X8444168Y-15536484D02*
X8463216Y-15546008D01*
X8463216Y-15546008D02*
X8472740Y-15555531D01*
X8472740Y-15555531D02*
X8482264Y-15574579D01*
X8482264Y-15574579D02*
X8491787Y-15612674D01*
X8491787Y-15612674D02*
X8491787Y-15660293D01*
X8491787Y-15660293D02*
X8482264Y-15698388D01*
X8482264Y-15698388D02*
X8472740Y-15717436D01*
X8472740Y-15717436D02*
X8463216Y-15726960D01*
X8463216Y-15726960D02*
X8444168Y-15736484D01*
X8444168Y-15736484D02*
X8425121Y-15736484D01*
X8425121Y-15736484D02*
X8406073Y-15726960D01*
X8406073Y-15726960D02*
X8396549Y-15717436D01*
X8396549Y-15717436D02*
X8387025Y-15698388D01*
X8387025Y-15698388D02*
X8377502Y-15660293D01*
X8377502Y-15660293D02*
X8377502Y-15612674D01*
X8377502Y-15612674D02*
X8387025Y-15574579D01*
X8387025Y-15574579D02*
X8396549Y-15555531D01*
X8396549Y-15555531D02*
X8406073Y-15546008D01*
X8406073Y-15546008D02*
X8425121Y-15536484D01*
X8577502Y-15717436D02*
X8587025Y-15726960D01*
X8587025Y-15726960D02*
X8577502Y-15736484D01*
X8577502Y-15736484D02*
X8567978Y-15726960D01*
X8567978Y-15726960D02*
X8577502Y-15717436D01*
X8577502Y-15717436D02*
X8577502Y-15736484D01*
X8710835Y-15536484D02*
X8729883Y-15536484D01*
X8729883Y-15536484D02*
X8748930Y-15546008D01*
X8748930Y-15546008D02*
X8758454Y-15555531D01*
X8758454Y-15555531D02*
X8767978Y-15574579D01*
X8767978Y-15574579D02*
X8777502Y-15612674D01*
X8777502Y-15612674D02*
X8777502Y-15660293D01*
X8777502Y-15660293D02*
X8767978Y-15698388D01*
X8767978Y-15698388D02*
X8758454Y-15717436D01*
X8758454Y-15717436D02*
X8748930Y-15726960D01*
X8748930Y-15726960D02*
X8729883Y-15736484D01*
X8729883Y-15736484D02*
X8710835Y-15736484D01*
X8710835Y-15736484D02*
X8691787Y-15726960D01*
X8691787Y-15726960D02*
X8682264Y-15717436D01*
X8682264Y-15717436D02*
X8672740Y-15698388D01*
X8672740Y-15698388D02*
X8663216Y-15660293D01*
X8663216Y-15660293D02*
X8663216Y-15612674D01*
X8663216Y-15612674D02*
X8672740Y-15574579D01*
X8672740Y-15574579D02*
X8682264Y-15555531D01*
X8682264Y-15555531D02*
X8691787Y-15546008D01*
X8691787Y-15546008D02*
X8710835Y-15536484D01*
X8844168Y-15536484D02*
X8967978Y-15536484D01*
X8967978Y-15536484D02*
X8901311Y-15612674D01*
X8901311Y-15612674D02*
X8929883Y-15612674D01*
X8929883Y-15612674D02*
X8948930Y-15622198D01*
X8948930Y-15622198D02*
X8958454Y-15631722D01*
X8958454Y-15631722D02*
X8967978Y-15650769D01*
X8967978Y-15650769D02*
X8967978Y-15698388D01*
X8967978Y-15698388D02*
X8958454Y-15717436D01*
X8958454Y-15717436D02*
X8948930Y-15726960D01*
X8948930Y-15726960D02*
X8929883Y-15736484D01*
X8929883Y-15736484D02*
X8872740Y-15736484D01*
X8872740Y-15736484D02*
X8853692Y-15726960D01*
X8853692Y-15726960D02*
X8844168Y-15717436D01*
X9063216Y-15736484D02*
X9101311Y-15736484D01*
X9101311Y-15736484D02*
X9120359Y-15726960D01*
X9120359Y-15726960D02*
X9129883Y-15717436D01*
X9129883Y-15717436D02*
X9148930Y-15688865D01*
X9148930Y-15688865D02*
X9158454Y-15650769D01*
X9158454Y-15650769D02*
X9158454Y-15574579D01*
X9158454Y-15574579D02*
X9148930Y-15555531D01*
X9148930Y-15555531D02*
X9139406Y-15546008D01*
X9139406Y-15546008D02*
X9120359Y-15536484D01*
X9120359Y-15536484D02*
X9082264Y-15536484D01*
X9082264Y-15536484D02*
X9063216Y-15546008D01*
X9063216Y-15546008D02*
X9053692Y-15555531D01*
X9053692Y-15555531D02*
X9044168Y-15574579D01*
X9044168Y-15574579D02*
X9044168Y-15622198D01*
X9044168Y-15622198D02*
X9053692Y-15641246D01*
X9053692Y-15641246D02*
X9063216Y-15650769D01*
X9063216Y-15650769D02*
X9082264Y-15660293D01*
X9082264Y-15660293D02*
X9120359Y-15660293D01*
X9120359Y-15660293D02*
X9139406Y-15650769D01*
X9139406Y-15650769D02*
X9148930Y-15641246D01*
X9148930Y-15641246D02*
X9158454Y-15622198D01*
X9329883Y-15603150D02*
X9329883Y-15736484D01*
X9282264Y-15526960D02*
X9234645Y-15669817D01*
X9234645Y-15669817D02*
X9358454Y-15669817D01*
X9425121Y-15536484D02*
X9425121Y-15574579D01*
X9501311Y-15536484D02*
X9501311Y-15574579D01*
X9796549Y-15812674D02*
X9787026Y-15803150D01*
X9787026Y-15803150D02*
X9767978Y-15774579D01*
X9767978Y-15774579D02*
X9758454Y-15755531D01*
X9758454Y-15755531D02*
X9748930Y-15726960D01*
X9748930Y-15726960D02*
X9739407Y-15679341D01*
X9739407Y-15679341D02*
X9739407Y-15641246D01*
X9739407Y-15641246D02*
X9748930Y-15593627D01*
X9748930Y-15593627D02*
X9758454Y-15565055D01*
X9758454Y-15565055D02*
X9767978Y-15546008D01*
X9767978Y-15546008D02*
X9787026Y-15517436D01*
X9787026Y-15517436D02*
X9796549Y-15507912D01*
X9958454Y-15603150D02*
X9958454Y-15736484D01*
X9910835Y-15526960D02*
X9863216Y-15669817D01*
X9863216Y-15669817D02*
X9987026Y-15669817D01*
X10091787Y-15622198D02*
X10072740Y-15612674D01*
X10072740Y-15612674D02*
X10063216Y-15603150D01*
X10063216Y-15603150D02*
X10053692Y-15584103D01*
X10053692Y-15584103D02*
X10053692Y-15574579D01*
X10053692Y-15574579D02*
X10063216Y-15555531D01*
X10063216Y-15555531D02*
X10072740Y-15546008D01*
X10072740Y-15546008D02*
X10091787Y-15536484D01*
X10091787Y-15536484D02*
X10129883Y-15536484D01*
X10129883Y-15536484D02*
X10148930Y-15546008D01*
X10148930Y-15546008D02*
X10158454Y-15555531D01*
X10158454Y-15555531D02*
X10167978Y-15574579D01*
X10167978Y-15574579D02*
X10167978Y-15584103D01*
X10167978Y-15584103D02*
X10158454Y-15603150D01*
X10158454Y-15603150D02*
X10148930Y-15612674D01*
X10148930Y-15612674D02*
X10129883Y-15622198D01*
X10129883Y-15622198D02*
X10091787Y-15622198D01*
X10091787Y-15622198D02*
X10072740Y-15631722D01*
X10072740Y-15631722D02*
X10063216Y-15641246D01*
X10063216Y-15641246D02*
X10053692Y-15660293D01*
X10053692Y-15660293D02*
X10053692Y-15698388D01*
X10053692Y-15698388D02*
X10063216Y-15717436D01*
X10063216Y-15717436D02*
X10072740Y-15726960D01*
X10072740Y-15726960D02*
X10091787Y-15736484D01*
X10091787Y-15736484D02*
X10129883Y-15736484D01*
X10129883Y-15736484D02*
X10148930Y-15726960D01*
X10148930Y-15726960D02*
X10158454Y-15717436D01*
X10158454Y-15717436D02*
X10167978Y-15698388D01*
X10167978Y-15698388D02*
X10167978Y-15660293D01*
X10167978Y-15660293D02*
X10158454Y-15641246D01*
X10158454Y-15641246D02*
X10148930Y-15631722D01*
X10148930Y-15631722D02*
X10129883Y-15622198D01*
X10291787Y-15536484D02*
X10310835Y-15536484D01*
X10310835Y-15536484D02*
X10329883Y-15546008D01*
X10329883Y-15546008D02*
X10339407Y-15555531D01*
X10339407Y-15555531D02*
X10348930Y-15574579D01*
X10348930Y-15574579D02*
X10358454Y-15612674D01*
X10358454Y-15612674D02*
X10358454Y-15660293D01*
X10358454Y-15660293D02*
X10348930Y-15698388D01*
X10348930Y-15698388D02*
X10339407Y-15717436D01*
X10339407Y-15717436D02*
X10329883Y-15726960D01*
X10329883Y-15726960D02*
X10310835Y-15736484D01*
X10310835Y-15736484D02*
X10291787Y-15736484D01*
X10291787Y-15736484D02*
X10272740Y-15726960D01*
X10272740Y-15726960D02*
X10263216Y-15717436D01*
X10263216Y-15717436D02*
X10253692Y-15698388D01*
X10253692Y-15698388D02*
X10244168Y-15660293D01*
X10244168Y-15660293D02*
X10244168Y-15612674D01*
X10244168Y-15612674D02*
X10253692Y-15574579D01*
X10253692Y-15574579D02*
X10263216Y-15555531D01*
X10263216Y-15555531D02*
X10272740Y-15546008D01*
X10272740Y-15546008D02*
X10291787Y-15536484D01*
X10596549Y-15736484D02*
X10596549Y-15536484D01*
X10682264Y-15736484D02*
X10682264Y-15631722D01*
X10682264Y-15631722D02*
X10672740Y-15612674D01*
X10672740Y-15612674D02*
X10653692Y-15603150D01*
X10653692Y-15603150D02*
X10625121Y-15603150D01*
X10625121Y-15603150D02*
X10606073Y-15612674D01*
X10606073Y-15612674D02*
X10596549Y-15622198D01*
X10806073Y-15736484D02*
X10787026Y-15726960D01*
X10787026Y-15726960D02*
X10777502Y-15717436D01*
X10777502Y-15717436D02*
X10767978Y-15698388D01*
X10767978Y-15698388D02*
X10767978Y-15641246D01*
X10767978Y-15641246D02*
X10777502Y-15622198D01*
X10777502Y-15622198D02*
X10787026Y-15612674D01*
X10787026Y-15612674D02*
X10806073Y-15603150D01*
X10806073Y-15603150D02*
X10834645Y-15603150D01*
X10834645Y-15603150D02*
X10853692Y-15612674D01*
X10853692Y-15612674D02*
X10863216Y-15622198D01*
X10863216Y-15622198D02*
X10872740Y-15641246D01*
X10872740Y-15641246D02*
X10872740Y-15698388D01*
X10872740Y-15698388D02*
X10863216Y-15717436D01*
X10863216Y-15717436D02*
X10853692Y-15726960D01*
X10853692Y-15726960D02*
X10834645Y-15736484D01*
X10834645Y-15736484D02*
X10806073Y-15736484D01*
X10987026Y-15736484D02*
X10967978Y-15726960D01*
X10967978Y-15726960D02*
X10958454Y-15707912D01*
X10958454Y-15707912D02*
X10958454Y-15536484D01*
X11139407Y-15726960D02*
X11120359Y-15736484D01*
X11120359Y-15736484D02*
X11082264Y-15736484D01*
X11082264Y-15736484D02*
X11063216Y-15726960D01*
X11063216Y-15726960D02*
X11053692Y-15707912D01*
X11053692Y-15707912D02*
X11053692Y-15631722D01*
X11053692Y-15631722D02*
X11063216Y-15612674D01*
X11063216Y-15612674D02*
X11082264Y-15603150D01*
X11082264Y-15603150D02*
X11120359Y-15603150D01*
X11120359Y-15603150D02*
X11139407Y-15612674D01*
X11139407Y-15612674D02*
X11148930Y-15631722D01*
X11148930Y-15631722D02*
X11148930Y-15650769D01*
X11148930Y-15650769D02*
X11053692Y-15669817D01*
X11225121Y-15726960D02*
X11244168Y-15736484D01*
X11244168Y-15736484D02*
X11282264Y-15736484D01*
X11282264Y-15736484D02*
X11301311Y-15726960D01*
X11301311Y-15726960D02*
X11310835Y-15707912D01*
X11310835Y-15707912D02*
X11310835Y-15698388D01*
X11310835Y-15698388D02*
X11301311Y-15679341D01*
X11301311Y-15679341D02*
X11282264Y-15669817D01*
X11282264Y-15669817D02*
X11253692Y-15669817D01*
X11253692Y-15669817D02*
X11234645Y-15660293D01*
X11234645Y-15660293D02*
X11225121Y-15641246D01*
X11225121Y-15641246D02*
X11225121Y-15631722D01*
X11225121Y-15631722D02*
X11234645Y-15612674D01*
X11234645Y-15612674D02*
X11253692Y-15603150D01*
X11253692Y-15603150D02*
X11282264Y-15603150D01*
X11282264Y-15603150D02*
X11301311Y-15612674D01*
X11377502Y-15812674D02*
X11387026Y-15803150D01*
X11387026Y-15803150D02*
X11406073Y-15774579D01*
X11406073Y-15774579D02*
X11415597Y-15755531D01*
X11415597Y-15755531D02*
X11425121Y-15726960D01*
X11425121Y-15726960D02*
X11434645Y-15679341D01*
X11434645Y-15679341D02*
X11434645Y-15641246D01*
X11434645Y-15641246D02*
X11425121Y-15593627D01*
X11425121Y-15593627D02*
X11415597Y-15565055D01*
X11415597Y-15565055D02*
X11406073Y-15546008D01*
X11406073Y-15546008D02*
X11387026Y-15517436D01*
X11387026Y-15517436D02*
X11377502Y-15507912D01*
M02*
