%TF.GenerationSoftware,KiCad,Pcbnew,7.0.9*%
%TF.CreationDate,2023-11-10T12:16:27-05:00*%
%TF.ProjectId,DoubleRow4SlotBackplane,446f7562-6c65-4526-9f77-34536c6f7442,rev?*%
%TF.SameCoordinates,Original*%
%TF.FileFunction,Drillmap*%
%TF.FilePolarity,Positive*%
%FSLAX45Y45*%
G04 Gerber Fmt 4.5, Leading zero omitted, Abs format (unit mm)*
G04 Created by KiCad (PCBNEW 7.0.9) date 2023-11-10 12:16:27*
%MOMM*%
%LPD*%
G01*
G04 APERTURE LIST*
%ADD10C,0.100000*%
%ADD11C,0.200000*%
G04 APERTURE END LIST*
D10*
X6226486Y-3048000D02*
X18949072Y-3048000D01*
X18949072Y-15000000D01*
X6226486Y-15000000D01*
X6226486Y-3048000D01*
D11*
X6482263Y-15316484D02*
X6482263Y-15116484D01*
X6482263Y-15116484D02*
X6529882Y-15116484D01*
X6529882Y-15116484D02*
X6558454Y-15126008D01*
X6558454Y-15126008D02*
X6577501Y-15145055D01*
X6577501Y-15145055D02*
X6587025Y-15164103D01*
X6587025Y-15164103D02*
X6596549Y-15202198D01*
X6596549Y-15202198D02*
X6596549Y-15230769D01*
X6596549Y-15230769D02*
X6587025Y-15268865D01*
X6587025Y-15268865D02*
X6577501Y-15287912D01*
X6577501Y-15287912D02*
X6558454Y-15306960D01*
X6558454Y-15306960D02*
X6529882Y-15316484D01*
X6529882Y-15316484D02*
X6482263Y-15316484D01*
X6682263Y-15316484D02*
X6682263Y-15183150D01*
X6682263Y-15221246D02*
X6691787Y-15202198D01*
X6691787Y-15202198D02*
X6701311Y-15192674D01*
X6701311Y-15192674D02*
X6720358Y-15183150D01*
X6720358Y-15183150D02*
X6739406Y-15183150D01*
X6806073Y-15316484D02*
X6806073Y-15183150D01*
X6806073Y-15116484D02*
X6796549Y-15126008D01*
X6796549Y-15126008D02*
X6806073Y-15135531D01*
X6806073Y-15135531D02*
X6815597Y-15126008D01*
X6815597Y-15126008D02*
X6806073Y-15116484D01*
X6806073Y-15116484D02*
X6806073Y-15135531D01*
X6929882Y-15316484D02*
X6910835Y-15306960D01*
X6910835Y-15306960D02*
X6901311Y-15287912D01*
X6901311Y-15287912D02*
X6901311Y-15116484D01*
X7034644Y-15316484D02*
X7015597Y-15306960D01*
X7015597Y-15306960D02*
X7006073Y-15287912D01*
X7006073Y-15287912D02*
X7006073Y-15116484D01*
X7263216Y-15316484D02*
X7263216Y-15116484D01*
X7263216Y-15116484D02*
X7329882Y-15259341D01*
X7329882Y-15259341D02*
X7396549Y-15116484D01*
X7396549Y-15116484D02*
X7396549Y-15316484D01*
X7577501Y-15316484D02*
X7577501Y-15211722D01*
X7577501Y-15211722D02*
X7567978Y-15192674D01*
X7567978Y-15192674D02*
X7548930Y-15183150D01*
X7548930Y-15183150D02*
X7510835Y-15183150D01*
X7510835Y-15183150D02*
X7491787Y-15192674D01*
X7577501Y-15306960D02*
X7558454Y-15316484D01*
X7558454Y-15316484D02*
X7510835Y-15316484D01*
X7510835Y-15316484D02*
X7491787Y-15306960D01*
X7491787Y-15306960D02*
X7482263Y-15287912D01*
X7482263Y-15287912D02*
X7482263Y-15268865D01*
X7482263Y-15268865D02*
X7491787Y-15249817D01*
X7491787Y-15249817D02*
X7510835Y-15240293D01*
X7510835Y-15240293D02*
X7558454Y-15240293D01*
X7558454Y-15240293D02*
X7577501Y-15230769D01*
X7672739Y-15183150D02*
X7672739Y-15383150D01*
X7672739Y-15192674D02*
X7691787Y-15183150D01*
X7691787Y-15183150D02*
X7729882Y-15183150D01*
X7729882Y-15183150D02*
X7748930Y-15192674D01*
X7748930Y-15192674D02*
X7758454Y-15202198D01*
X7758454Y-15202198D02*
X7767978Y-15221246D01*
X7767978Y-15221246D02*
X7767978Y-15278388D01*
X7767978Y-15278388D02*
X7758454Y-15297436D01*
X7758454Y-15297436D02*
X7748930Y-15306960D01*
X7748930Y-15306960D02*
X7729882Y-15316484D01*
X7729882Y-15316484D02*
X7691787Y-15316484D01*
X7691787Y-15316484D02*
X7672739Y-15306960D01*
X7853692Y-15297436D02*
X7863216Y-15306960D01*
X7863216Y-15306960D02*
X7853692Y-15316484D01*
X7853692Y-15316484D02*
X7844168Y-15306960D01*
X7844168Y-15306960D02*
X7853692Y-15297436D01*
X7853692Y-15297436D02*
X7853692Y-15316484D01*
X7853692Y-15192674D02*
X7863216Y-15202198D01*
X7863216Y-15202198D02*
X7853692Y-15211722D01*
X7853692Y-15211722D02*
X7844168Y-15202198D01*
X7844168Y-15202198D02*
X7853692Y-15192674D01*
X7853692Y-15192674D02*
X7853692Y-15211722D01*
M02*
