M48
; DRILL file {KiCad 7.0.9} date Fri Nov 10 12:16:17 2023
; FORMAT={-:-/ absolute / metric / decimal}
; #@! TF.CreationDate,2023-11-10T12:16:17-05:00
; #@! TF.GenerationSoftware,Kicad,Pcbnew,7.0.9
; #@! TF.FileFunction,Plated,1,2,PTH
FMAT,2
METRIC
; #@! TA.AperFunction,Plated,PTH,ComponentDrill
T1C1.000
%
G90
G05
T1
X63.5Y-93.98
X63.5Y-96.52
X63.5Y-99.06
X63.5Y-101.6
X63.5Y-104.14
X63.5Y-106.68
X63.5Y-109.22
X63.5Y-111.76
X63.5Y-114.3
X63.5Y-116.84
X63.5Y-119.38
X63.5Y-121.92
X63.5Y-124.46
X63.5Y-127.0
X63.5Y-129.54
X63.5Y-132.08
X63.5Y-134.62
X63.5Y-137.16
X63.5Y-139.7
X63.5Y-142.24
X63.74Y-36.69
X63.74Y-39.23
X63.74Y-41.77
X63.74Y-44.31
X63.74Y-46.85
X63.74Y-49.39
X63.74Y-51.93
X63.74Y-54.47
X63.74Y-57.01
X63.74Y-59.55
X63.74Y-62.09
X63.74Y-64.63
X63.74Y-67.17
X63.74Y-69.71
X63.74Y-72.25
X63.74Y-74.79
X63.74Y-77.33
X63.74Y-79.87
X63.74Y-82.41
X63.74Y-84.95
X66.04Y-93.98
X66.04Y-96.52
X66.04Y-99.06
X66.04Y-101.6
X66.04Y-104.14
X66.04Y-106.68
X66.04Y-109.22
X66.04Y-111.76
X66.04Y-114.3
X66.04Y-116.84
X66.04Y-119.38
X66.04Y-121.92
X66.04Y-124.46
X66.04Y-127.0
X66.04Y-129.54
X66.04Y-132.08
X66.04Y-134.62
X66.04Y-137.16
X66.04Y-139.7
X66.04Y-142.24
X66.28Y-36.69
X66.28Y-39.23
X66.28Y-41.77
X66.28Y-44.31
X66.28Y-46.85
X66.28Y-49.39
X66.28Y-51.93
X66.28Y-54.47
X66.28Y-57.01
X66.28Y-59.55
X66.28Y-62.09
X66.28Y-64.63
X66.28Y-67.17
X66.28Y-69.71
X66.28Y-72.25
X66.28Y-74.79
X66.28Y-77.33
X66.28Y-79.87
X66.28Y-82.41
X66.28Y-84.95
X78.74Y-36.69
X78.74Y-39.23
X78.74Y-41.77
X78.74Y-44.31
X78.74Y-46.85
X78.74Y-49.39
X78.74Y-51.93
X78.74Y-54.47
X78.74Y-57.01
X78.74Y-59.55
X78.74Y-62.09
X78.74Y-64.63
X78.74Y-67.17
X78.74Y-69.71
X78.74Y-72.25
X78.74Y-74.79
X78.74Y-77.33
X78.74Y-79.87
X78.74Y-82.41
X78.74Y-84.95
X78.74Y-93.98
X78.74Y-96.52
X78.74Y-99.06
X78.74Y-101.6
X78.74Y-104.14
X78.74Y-106.68
X78.74Y-109.22
X78.74Y-111.76
X78.74Y-114.3
X78.74Y-116.84
X78.74Y-119.38
X78.74Y-121.92
X78.74Y-124.46
X78.74Y-127.0
X78.74Y-129.54
X78.74Y-132.08
X78.74Y-134.62
X78.74Y-137.16
X78.74Y-139.7
X78.74Y-142.24
X81.28Y-36.69
X81.28Y-39.23
X81.28Y-41.77
X81.28Y-44.31
X81.28Y-46.85
X81.28Y-49.39
X81.28Y-51.93
X81.28Y-54.47
X81.28Y-57.01
X81.28Y-59.55
X81.28Y-62.09
X81.28Y-64.63
X81.28Y-67.17
X81.28Y-69.71
X81.28Y-72.25
X81.28Y-74.79
X81.28Y-77.33
X81.28Y-79.87
X81.28Y-82.41
X81.28Y-84.95
X81.28Y-93.98
X81.28Y-96.52
X81.28Y-99.06
X81.28Y-101.6
X81.28Y-104.14
X81.28Y-106.68
X81.28Y-109.22
X81.28Y-111.76
X81.28Y-114.3
X81.28Y-116.84
X81.28Y-119.38
X81.28Y-121.92
X81.28Y-124.46
X81.28Y-127.0
X81.28Y-129.54
X81.28Y-132.08
X81.28Y-134.62
X81.28Y-137.16
X81.28Y-139.7
X81.28Y-142.24
X108.74Y-36.69
X108.74Y-39.23
X108.74Y-41.77
X108.74Y-44.31
X108.74Y-46.85
X108.74Y-49.39
X108.74Y-51.93
X108.74Y-54.47
X108.74Y-57.01
X108.74Y-59.55
X108.74Y-62.09
X108.74Y-64.63
X108.74Y-67.17
X108.74Y-69.71
X108.74Y-72.25
X108.74Y-74.79
X108.74Y-77.33
X108.74Y-79.87
X108.74Y-82.41
X108.74Y-84.95
X108.74Y-93.98
X108.74Y-96.52
X108.74Y-99.06
X108.74Y-101.6
X108.74Y-104.14
X108.74Y-106.68
X108.74Y-109.22
X108.74Y-111.76
X108.74Y-114.3
X108.74Y-116.84
X108.74Y-119.38
X108.74Y-121.92
X108.74Y-124.46
X108.74Y-127.0
X108.74Y-129.54
X108.74Y-132.08
X108.74Y-134.62
X108.74Y-137.16
X108.74Y-139.7
X108.74Y-142.24
X111.28Y-36.69
X111.28Y-39.23
X111.28Y-41.77
X111.28Y-44.31
X111.28Y-46.85
X111.28Y-49.39
X111.28Y-51.93
X111.28Y-54.47
X111.28Y-57.01
X111.28Y-59.55
X111.28Y-62.09
X111.28Y-64.63
X111.28Y-67.17
X111.28Y-69.71
X111.28Y-72.25
X111.28Y-74.79
X111.28Y-77.33
X111.28Y-79.87
X111.28Y-82.41
X111.28Y-84.95
X111.28Y-93.98
X111.28Y-96.52
X111.28Y-99.06
X111.28Y-101.6
X111.28Y-104.14
X111.28Y-106.68
X111.28Y-109.22
X111.28Y-111.76
X111.28Y-114.3
X111.28Y-116.84
X111.28Y-119.38
X111.28Y-121.92
X111.28Y-124.46
X111.28Y-127.0
X111.28Y-129.54
X111.28Y-132.08
X111.28Y-134.62
X111.28Y-137.16
X111.28Y-139.7
X111.28Y-142.24
X138.74Y-36.69
X138.74Y-39.23
X138.74Y-41.77
X138.74Y-44.31
X138.74Y-46.85
X138.74Y-49.39
X138.74Y-51.93
X138.74Y-54.47
X138.74Y-57.01
X138.74Y-59.55
X138.74Y-62.09
X138.74Y-64.63
X138.74Y-67.17
X138.74Y-69.71
X138.74Y-72.25
X138.74Y-74.79
X138.74Y-77.33
X138.74Y-79.87
X138.74Y-82.41
X138.74Y-84.95
X138.74Y-93.98
X138.74Y-96.52
X138.74Y-99.06
X138.74Y-101.6
X138.74Y-104.14
X138.74Y-106.68
X138.74Y-109.22
X138.74Y-111.76
X138.74Y-114.3
X138.74Y-116.84
X138.74Y-119.38
X138.74Y-121.92
X138.74Y-124.46
X138.74Y-127.0
X138.74Y-129.54
X138.74Y-132.08
X138.74Y-134.62
X138.74Y-137.16
X138.74Y-139.7
X138.74Y-142.24
X141.28Y-36.69
X141.28Y-39.23
X141.28Y-41.77
X141.28Y-44.31
X141.28Y-46.85
X141.28Y-49.39
X141.28Y-51.93
X141.28Y-54.47
X141.28Y-57.01
X141.28Y-59.55
X141.28Y-62.09
X141.28Y-64.63
X141.28Y-67.17
X141.28Y-69.71
X141.28Y-72.25
X141.28Y-74.79
X141.28Y-77.33
X141.28Y-79.87
X141.28Y-82.41
X141.28Y-84.95
X141.28Y-93.98
X141.28Y-96.52
X141.28Y-99.06
X141.28Y-101.6
X141.28Y-104.14
X141.28Y-106.68
X141.28Y-109.22
X141.28Y-111.76
X141.28Y-114.3
X141.28Y-116.84
X141.28Y-119.38
X141.28Y-121.92
X141.28Y-124.46
X141.28Y-127.0
X141.28Y-129.54
X141.28Y-132.08
X141.28Y-134.62
X141.28Y-137.16
X141.28Y-139.7
X141.28Y-142.24
X168.74Y-36.69
X168.74Y-39.23
X168.74Y-41.77
X168.74Y-44.31
X168.74Y-46.85
X168.74Y-49.39
X168.74Y-51.93
X168.74Y-54.47
X168.74Y-57.01
X168.74Y-59.55
X168.74Y-62.09
X168.74Y-64.63
X168.74Y-67.17
X168.74Y-69.71
X168.74Y-72.25
X168.74Y-74.79
X168.74Y-77.33
X168.74Y-79.87
X168.74Y-82.41
X168.74Y-84.95
X168.74Y-93.98
X168.74Y-96.52
X168.74Y-99.06
X168.74Y-101.6
X168.74Y-104.14
X168.74Y-106.68
X168.74Y-109.22
X168.74Y-111.76
X168.74Y-114.3
X168.74Y-116.84
X168.74Y-119.38
X168.74Y-121.92
X168.74Y-124.46
X168.74Y-127.0
X168.74Y-129.54
X168.74Y-132.08
X168.74Y-134.62
X168.74Y-137.16
X168.74Y-139.7
X168.74Y-142.24
X171.28Y-36.69
X171.28Y-39.23
X171.28Y-41.77
X171.28Y-44.31
X171.28Y-46.85
X171.28Y-49.39
X171.28Y-51.93
X171.28Y-54.47
X171.28Y-57.01
X171.28Y-59.55
X171.28Y-62.09
X171.28Y-64.63
X171.28Y-67.17
X171.28Y-69.71
X171.28Y-72.25
X171.28Y-74.79
X171.28Y-77.33
X171.28Y-79.87
X171.28Y-82.41
X171.28Y-84.95
X171.28Y-93.98
X171.28Y-96.52
X171.28Y-99.06
X171.28Y-101.6
X171.28Y-104.14
X171.28Y-106.68
X171.28Y-109.22
X171.28Y-111.76
X171.28Y-114.3
X171.28Y-116.84
X171.28Y-119.38
X171.28Y-121.92
X171.28Y-124.46
X171.28Y-127.0
X171.28Y-129.54
X171.28Y-132.08
X171.28Y-134.62
X171.28Y-137.16
X171.28Y-139.7
X171.28Y-142.24
X182.88Y-36.69
X182.88Y-39.23
X182.88Y-41.77
X182.88Y-44.31
X182.88Y-46.85
X182.88Y-49.39
X182.88Y-51.93
X182.88Y-54.47
X182.88Y-57.01
X182.88Y-59.55
X182.88Y-62.09
X182.88Y-64.63
X182.88Y-67.17
X182.88Y-69.71
X182.88Y-72.25
X182.88Y-74.79
X182.88Y-77.33
X182.88Y-79.87
X182.88Y-82.41
X182.88Y-84.95
X182.88Y-93.98
X182.88Y-96.52
X182.88Y-99.06
X182.88Y-101.6
X182.88Y-104.14
X182.88Y-106.68
X182.88Y-109.22
X182.88Y-111.76
X182.88Y-114.3
X182.88Y-116.84
X182.88Y-119.38
X182.88Y-121.92
X182.88Y-124.46
X182.88Y-127.0
X182.88Y-129.54
X182.88Y-132.08
X182.88Y-134.62
X182.88Y-137.16
X182.88Y-139.7
X182.88Y-142.24
X185.42Y-36.69
X185.42Y-39.23
X185.42Y-41.77
X185.42Y-44.31
X185.42Y-46.85
X185.42Y-49.39
X185.42Y-51.93
X185.42Y-54.47
X185.42Y-57.01
X185.42Y-59.55
X185.42Y-62.09
X185.42Y-64.63
X185.42Y-67.17
X185.42Y-69.71
X185.42Y-72.25
X185.42Y-74.79
X185.42Y-77.33
X185.42Y-79.87
X185.42Y-82.41
X185.42Y-84.95
X185.42Y-93.98
X185.42Y-96.52
X185.42Y-99.06
X185.42Y-101.6
X185.42Y-104.14
X185.42Y-106.68
X185.42Y-109.22
X185.42Y-111.76
X185.42Y-114.3
X185.42Y-116.84
X185.42Y-119.38
X185.42Y-121.92
X185.42Y-124.46
X185.42Y-127.0
X185.42Y-129.54
X185.42Y-132.08
X185.42Y-134.62
X185.42Y-137.16
X185.42Y-139.7
X185.42Y-142.24
T0
M30
